<?xml version="1.0" encoding="utf-8"?>
<!-- Generator: Adobe Illustrator 27.4.0, SVG Export Plug-In . SVG Version: 6.00 Build 0)  -->
<svg version="1.1" id="Layer_1" xmlns="http://www.w3.org/2000/svg" xmlns:xlink="http://www.w3.org/1999/xlink" x="0px" y="0px"
	 viewBox="0 0 422 202" style="enable-background:new 0 0 422 202;" xml:space="preserve">
<style type="text/css">
	.st0{enable-background:new    ;}
</style>
<g class="st0">
	<path d="M100.3,132.4c0,17.3-11.1,28.8-27.9,28.8c-16.8,0-27.7-11.5-27.7-28.8V68.2c0-17.3,10.9-28.8,27.7-28.8
		c16.8,0,27.9,11.5,27.9,28.8v4.2H87.2v-4.2c0-9.5-5.8-15.7-14.8-15.7c-8.9,0-14.6,6.2-14.6,15.7v64.2c0,9.5,5.8,15.7,14.6,15.7
		c9,0,14.8-6.2,14.8-15.7v-4.2h13.1V132.4z"/>
	<path d="M170.4,97.4v61.4h-12.5V99.1c0-8.7-5.3-14.5-13.7-14.5c-8.4,0-13.7,5.8-13.7,14.5v59.7h-12.6V41.9h12.6v37.6
		c3.9-4.8,9.7-7.5,16.8-7.5C160.4,72,170.4,80.9,170.4,97.4z"/>
	<path d="M241.3,99.7v59.1h-12.5v-6.1c-4.1,5.1-10.4,7.9-18.7,7.9c-15.4,0-24-9.5-24-22.9c0-12.2,7.3-17.8,15.1-21
		c12-5.1,27.6-4.8,27.6-15.6v-1.9c0-8.7-5.6-14.6-14.5-14.6c-8.7,0-14,5.9-14,14.6v2.6h-12.6v-2.2c0-16.5,10.8-27.6,26.6-27.6
		C230.4,72.1,241.3,83.2,241.3,99.7z M228.8,132.8v-14.5c-5.9,3.9-13.7,4.4-20.1,6.7c-5.8,2-10.1,5.1-10.1,11.7
		c0,7,5.1,12.2,14.3,12.2C222.9,148.8,228.8,143,228.8,132.8z"/>
	<path d="M266.6,131.7v-46h-15V74h15V52.8H279V74h20.4v11.7H279v46c0,9.3,5.6,15.6,14.3,15.6h6.1v12.5h-6.1
		C277.2,159.7,266.6,149,266.6,131.7z"/>
	<path d="M318.6,131.7v-46h-15V74h15V52.8h12.5V74h20.4v11.7h-20.4v46c0,9.3,5.6,15.6,14.3,15.6h6.1v12.5h-6.1
		C329.2,159.7,318.6,149,318.6,131.7z"/>
	<path d="M365.7,46.6h12.6v18.5h-12.6V46.6z M365.7,74h12.6v84.8h-12.6V74z"/>
</g>
</svg>
