<?xml version="1.0" encoding="utf-8"?>
<!-- Generator: Adobe Illustrator 27.4.0, SVG Export Plug-In . SVG Version: 6.00 Build 0)  -->
<svg version="1.1" id="Layer_1" xmlns="http://www.w3.org/2000/svg" xmlns:xlink="http://www.w3.org/1999/xlink" x="0px" y="0px"
	 viewBox="0 0 1080 1080" style="enable-background:new 0 0 1080 1080;" xml:space="preserve">
<style type="text/css">
	.st0{fill:#FFC500;}
</style>
<path class="st0" d="M914.25,1080h-748.5C74.21,1080,0,1005.79,0,914.25v-748.5C0,74.21,74.21,0,165.75,0h748.5
	C1005.79,0,1080,74.21,1080,165.75v748.5C1080,1005.79,1005.79,1080,914.25,1080z"/>
<g>
	<path d="M148.49,180.71v-7.96h125.31c70.91,0,113.21,23.86,113.21,76.01c0,37.85-22.57,70.6-113.21,70.6h-43.9v117.99
		c0,7.32,5.09,12.07,12.41,12.07h3.83v8.27h-97.65v-8.27h4.14c7.32,0,12.07-4.78,12.07-12.07V193.12c0-7.32-4.78-12.41-12.07-12.41
		H148.49z M229.9,180.71v130.4h27.66c38.81,0,64.55-25.75,64.55-65.2s-25.75-65.2-64.55-65.2
		C257.56,180.71,229.9,180.71,229.9,180.71z"/>
	<path d="M493.88,449.45v8.27h-97.65v-8.27h4.14c7.32,0,12.07-4.78,12.07-12.07V205.22c0-7.32-4.78-12.07-12.07-12.07h-4.14v-8.27
		l81.41-12.07v264.6c0,7.32,5.09,12.07,12.41,12.07h3.83V449.45z"/>
	<path d="M710.78,449.45v8.27h-69.34c-7.32,0-12.07-4.78-12.07-12.07v-7.63c-6.67,14.94-21.95,23.86-51.83,23.86
		c-43.25,0-68.38-18.12-68.38-50.57c0-67.11,107.5-72.52,119.26-94.47c-3.18-35.63-15.9-58.84-33.4-58.84
		c-19.08,0-30.53,28-10.5,64.24c-8.27,5.4-17.17,7.63-25.75,7.63c-20.04,0-37.85-13.37-37.85-33.07
		c-0.31-25.13,28.93-46.74,79.83-46.74c63.29,0,93.82,33.4,93.82,72.52v114.81c0,7.32,4.78,12.07,12.07,12.07h4.14V449.45z
		 M629.37,412.25v-84.62c-11.14,22.57-55.32,34.36-55.32,83.63c0,19.39,6.67,41.03,26.09,41.03
		C616.65,452.32,629.06,436.09,629.37,412.25z"/>
	<path d="M889.53,262.12v-7.96h41.98v7.96h-4.14c-7.32,0-14.32,4.45-17.81,11.14l-90.95,172.36
		c-32.76,62.64-41.34,97.65-75.39,97.65c-21.95,0-35.63-15.59-35.63-38.16c0-23.86,14.94-37.85,35.31-37.85
		c7.32,0,14.63,1.91,20.99,5.09c-11.14,10.19-17.81,28.31-17.81,45.16c0,7.96,1.27,16.55,10.19,13.99
		c9.85-3.18,18.43-17.17,50.26-79.5l-87.15-178.75c-3.18-6.67-10.19-11.14-17.5-11.14h-4.14v-7.96h104.96v7.96h-3.83
		c-7.32,0-9.85,4.45-7.01,11.14l52.17,106.54l56.62-106.85c3.18-6.67,0.65-10.81-6.67-10.81h-4.47V262.12z"/>
</g>
<g>
	<path d="M148.65,626.08v-7.96h97.65c90.64,0,153.28,54.7,153.28,141.52c0,82.37-55.97,143.43-153.28,143.43h-97.65v-8.27h4.14
		c7.32,0,12.07-4.78,12.07-12.07V638.48c0-7.32-4.78-12.41-12.07-12.41H148.65z M230.06,626.08v268.74h11.76
		c58.84,0,92.55-54.06,92.55-133.58c0-78.88-33.4-135.16-92.55-135.16C241.83,626.08,230.06,626.08,230.06,626.08z"/>
	<path d="M617.13,894.81v8.27h-69.34c-7.32,0-12.07-4.78-12.07-12.07v-7.63c-6.67,14.94-21.95,23.86-51.83,23.86
		c-43.25,0-68.38-18.12-68.38-50.57c0-67.11,107.5-72.52,119.26-94.47c-3.18-35.63-15.9-58.84-33.4-58.84
		c-19.08,0-30.53,28-10.5,64.24c-8.27,5.4-17.17,7.63-25.75,7.63c-20.04,0-37.85-13.37-37.85-33.07
		c-0.31-25.13,28.93-46.74,79.83-46.74c63.29,0,93.82,33.4,93.82,72.52v114.81c0,7.32,4.78,12.07,12.07,12.07h4.14V894.81z
		 M535.72,857.61V773c-11.12,22.57-55.33,34.36-55.33,83.63c0,19.39,6.67,41.03,26.09,41.03C523,897.68,535.39,881.45,535.72,857.61
		z"/>
	<path d="M687.74,907.22c-32.76,0-51.83-25.44-51.83-66.16V707.49h-13.37v-7.96l78.54-48.97v48.97h33.4v7.96h-33.4v156.15
		c0,13.37,7.63,19.39,16.21,19.39c6.67,0,13.68-3.49,18.12-10.19C728.45,893.55,711.91,907.22,687.74,907.22z"/>
	<path d="M931.35,820.38c-7.32,54.06-45.48,86.81-94.78,86.81c-54.7,0-95.42-40.72-95.42-105.89s40.72-105.89,100.49-105.89
		c48.65,0,76.65,26.71,71.87,64.24c-6.05,47.39-59.15,75.7-101.78,71.25c7.63,24.17,23.53,39.76,52.15,39.76
		c35.31,0,51.21-23.86,59.15-50.26h8.32V820.38z M810.51,826.12c62.98-62.02,51.21-122.75,26.71-122.75
		c-18.12,0-31.18,34.02-31.18,81.75C806.06,800.04,807.33,813.71,810.51,826.12z"/>
</g>
</svg>
