<?xml version="1.0" encoding="utf-8"?>
<!-- Generator: Adobe Illustrator 27.4.0, SVG Export Plug-In . SVG Version: 6.00 Build 0)  -->
<svg version="1.1" id="Layer_1" xmlns="http://www.w3.org/2000/svg" xmlns:xlink="http://www.w3.org/1999/xlink" x="0px" y="0px"
	 viewBox="0 0 654 202" style="enable-background:new 0 0 654 202;" xml:space="preserve">
<g>
	<path d="M20.4,39.5v-3.1h48.5c27.4,0,43.8,9.2,43.8,29.4c0,14.6-8.7,27.3-43.8,27.3h-17v45.6c0,2.8,2,4.7,4.8,4.7h1.5v3.2H20.4
		v-3.2H22c2.8,0,4.7-1.9,4.7-4.7V44.3c0-2.8-1.8-4.8-4.7-4.8H20.4z M51.9,39.5V90h10.7c15,0,25-10,25-25.2s-10-25.2-25-25.2
		C62.6,39.5,51.9,39.5,51.9,39.5z"/>
	<path d="M154,143.5v3.2h-37.8v-3.2h1.6c2.8,0,4.7-1.9,4.7-4.7V49c0-2.8-1.9-4.7-4.7-4.7h-1.6v-3.2l31.5-4.7v102.3
		c0,2.8,2,4.7,4.8,4.7L154,143.5L154,143.5z"/>
	<path d="M237.9,143.5v3.2h-26.8c-2.8,0-4.7-1.9-4.7-4.7v-2.9c-2.6,5.8-8.5,9.2-20.1,9.2c-16.7,0-26.4-7-26.4-19.6
		c0-26,41.6-28.1,46.1-36.5c-1.2-13.8-6.1-22.8-12.9-22.8c-7.4,0-11.8,10.8-4.1,24.8c-3.2,2.1-6.6,2.9-10,2.9
		c-7.8,0-14.6-5.2-14.6-12.8c-0.1-9.7,11.2-18.1,30.9-18.1c24.5,0,36.3,12.9,36.3,28.1v44.4c0,2.8,1.9,4.7,4.7,4.7L237.9,143.5
		L237.9,143.5z M206.4,129.1V96.3c-4.3,8.7-21.4,13.3-21.4,32.3c0,7.5,2.6,15.9,10.1,15.9C201.5,144.6,206.3,138.3,206.4,129.1z"/>
	<path d="M307.1,71v-3.1h16.2V71h-1.6c-2.8,0-5.5,1.7-6.9,4.3L279.6,142c-12.7,24.2-16,37.8-29.2,37.8c-8.5,0-13.8-6-13.8-14.8
		c0-9.2,5.8-14.6,13.7-14.6c2.8,0,5.7,0.7,8.1,2c-4.3,3.9-6.9,10.9-6.9,17.5c0,3.1,0.5,6.4,3.9,5.4c3.8-1.2,7.1-6.6,19.4-30.8
		l-33.7-69.1c-1.2-2.6-3.9-4.3-6.8-4.3h-1.6v-3.1h40.6V71H272c-2.8,0-3.8,1.7-2.7,4.3l20.2,41.2l21.9-41.3c1.2-2.6,0.2-4.2-2.6-4.2
		L307.1,71L307.1,71L307.1,71z"/>
	<path d="M332,39.5v-3.1h37.8c35.1,0,59.3,21.2,59.3,54.7c0,31.9-21.6,55.5-59.3,55.5H332v-3.2h1.6c2.8,0,4.7-1.9,4.7-4.7V44.3
		c0-2.8-1.9-4.8-4.7-4.8H332z M363.5,39.5v103.9h4.5c22.8,0,35.8-20.9,35.8-51.7c0-30.5-12.9-52.3-35.8-52.3
		C368.1,39.5,363.5,39.5,363.5,39.5z"/>
	<path d="M513.2,143.5v3.2h-26.8c-2.8,0-4.7-1.9-4.7-4.7v-2.9c-2.6,5.8-8.5,9.2-20,9.2c-16.7,0-26.5-7-26.5-19.6
		c0-26,41.6-28.1,46.1-36.5c-1.2-13.8-6.2-22.8-12.9-22.8c-7.4,0-11.8,10.8-4.1,24.8c-3.2,2.1-6.6,2.9-10,2.9
		c-7.8,0-14.6-5.2-14.6-12.8c-0.1-9.7,11.2-18.1,30.9-18.1c24.5,0,36.3,12.9,36.3,28.1v44.4c0,2.8,1.8,4.7,4.7,4.7L513.2,143.5
		L513.2,143.5z M481.8,129.1V96.3c-4.3,8.7-21.4,13.3-21.4,32.3c0,7.5,2.6,15.9,10.1,15.9C476.8,144.6,481.6,138.3,481.8,129.1z"/>
	<path d="M540.6,148.3c-12.7,0-20-9.8-20-25.6V71h-5.2v-3.1L545.7,49v18.9h12.9V71h-12.9v60.4c0,5.2,3,7.5,6.3,7.5
		c2.6,0,5.3-1.4,7-3.9C556.3,143,549.9,148.3,540.6,148.3z"/>
	<path d="M634.8,114.7c-2.8,20.9-17.6,33.6-36.7,33.6c-21.2,0-36.9-15.8-36.9-41s15.8-41,38.9-41c18.8,0,29.7,10.3,27.8,24.8
		c-2.3,18.3-22.9,29.3-39.4,27.6c3,9.3,9.1,15.4,20.2,15.4c13.7,0,19.8-9.2,22.9-19.4L634.8,114.7L634.8,114.7z M588,116.9
		c24.4-24,19.8-47.5,10.3-47.5c-7,0-12.1,13.2-12.1,31.6C586.3,106.8,586.8,112.1,588,116.9z"/>
</g>
</svg>
