<?xml version="1.0" encoding="utf-8"?>
<!-- Generator: Adobe Illustrator 27.4.0, SVG Export Plug-In . SVG Version: 6.00 Build 0)  -->
<svg version="1.1" id="Layer_1" xmlns="http://www.w3.org/2000/svg" xmlns:xlink="http://www.w3.org/1999/xlink" x="0px" y="0px"
	 viewBox="0 0 788 202" style="enable-background:new 0 0 788 202;" xml:space="preserve">
<g>
	<path d="M87.43,39.52v-3.08h48.47c27.43,0,43.79,9.23,43.79,29.4c0,14.64-8.73,27.31-43.79,27.31h-16.98v45.64
		c0,2.83,1.97,4.67,4.8,4.67h1.48v3.2H87.43v-3.2h1.6c2.83,0,4.67-1.85,4.67-4.67V44.32c0-2.83-1.85-4.8-4.67-4.8H87.43z
		 M118.92,39.52v50.44h10.7c15.01,0,24.97-9.96,24.97-25.22s-9.96-25.22-24.97-25.22C129.62,39.52,118.92,39.52,118.92,39.52z"/>
	<path d="M221.03,143.47v3.2h-37.77v-3.2h1.6c2.83,0,4.67-1.85,4.67-4.67V49c0-2.83-1.85-4.67-4.67-4.67h-1.6v-3.2l31.49-4.67
		v102.35c0,2.83,1.97,4.67,4.8,4.67L221.03,143.47L221.03,143.47z"/>
	<path d="M304.93,143.47v3.2h-26.82c-2.83,0-4.67-1.85-4.67-4.67v-2.95c-2.58,5.78-8.49,9.23-20.05,9.23
		c-16.73,0-26.45-7.01-26.45-19.56c0-25.96,41.58-28.05,46.13-36.54c-1.23-13.78-6.15-22.76-12.92-22.76
		c-7.38,0-11.81,10.83-4.06,24.85c-3.2,2.09-6.64,2.95-9.96,2.95c-7.75,0-14.64-5.17-14.64-12.79
		c-0.12-9.72,11.19-18.08,30.88-18.08c24.48,0,36.29,12.92,36.29,28.05v44.41c0,2.83,1.85,4.67,4.67,4.67L304.93,143.47
		L304.93,143.47z M273.44,129.08V96.35c-4.31,8.73-21.4,13.29-21.4,32.35c0,7.5,2.58,15.87,10.09,15.87
		C268.52,144.58,273.32,138.3,273.44,129.08z"/>
	<path d="M374.07,71.01v-3.08h16.24v3.08h-1.6c-2.83,0-5.54,1.72-6.89,4.31l-35.18,66.67c-12.67,24.23-15.99,37.77-29.16,37.77
		c-8.49,0-13.78-6.03-13.78-14.76c0-9.23,5.78-14.64,13.66-14.64c2.83,0,5.66,0.74,8.12,1.97c-4.31,3.94-6.89,10.95-6.89,17.47
		c0,3.08,0.49,6.4,3.94,5.41c3.81-1.23,7.13-6.64,19.44-30.75l-33.71-69.14c-1.23-2.58-3.94-4.31-6.77-4.31h-1.6v-3.08h40.6v3.08
		h-1.48c-2.83,0-3.81,1.72-2.71,4.31l20.18,41.21l21.9-41.33c1.23-2.58,0.25-4.18-2.58-4.18h-1.73V71.01z"/>
	<path d="M399.04,39.52v-3.08h37.77c35.06,0,59.29,21.16,59.29,54.74c0,31.86-21.65,55.48-59.29,55.48h-37.77v-3.2h1.6
		c2.83,0,4.67-1.85,4.67-4.67V44.32c0-2.83-1.85-4.8-4.67-4.8H399.04z M430.53,39.52v103.95h4.55c22.76,0,35.8-20.91,35.8-51.67
		c0-30.51-12.92-52.28-35.8-52.28C435.08,39.52,430.53,39.52,430.53,39.52z"/>
	<path d="M580.25,143.47v3.2h-26.82c-2.83,0-4.67-1.85-4.67-4.67v-2.95c-2.58,5.78-8.49,9.23-20.05,9.23
		c-16.73,0-26.45-7.01-26.45-19.56c0-25.96,41.58-28.05,46.13-36.54c-1.23-13.78-6.15-22.76-12.92-22.76
		c-7.38,0-11.81,10.83-4.06,24.85c-3.2,2.09-6.64,2.95-9.96,2.95c-7.75,0-14.64-5.17-14.64-12.79
		c-0.12-9.72,11.19-18.08,30.88-18.08c24.48,0,36.29,12.92,36.29,28.05v44.41c0,2.83,1.85,4.67,4.67,4.67L580.25,143.47
		L580.25,143.47z M548.76,129.08V96.35c-4.3,8.73-21.4,13.29-21.4,32.35c0,7.5,2.58,15.87,10.09,15.87
		C543.84,144.58,548.63,138.3,548.76,129.08z"/>
	<path d="M607.56,148.27c-12.67,0-20.05-9.84-20.05-25.59V71.01h-5.17v-3.08l30.38-18.94v18.94h12.92v3.08h-12.92v60.4
		c0,5.17,2.95,7.5,6.27,7.5c2.58,0,5.29-1.35,7.01-3.94C623.31,142.98,616.91,148.27,607.56,148.27z"/>
	<path d="M701.79,114.68c-2.83,20.91-17.59,33.58-36.66,33.58c-21.16,0-36.91-15.75-36.91-40.96s15.75-40.96,38.87-40.96
		c18.82,0,29.65,10.33,27.8,24.85c-2.34,18.33-22.88,29.28-39.37,27.56c2.95,9.35,9.1,15.38,20.17,15.38
		c13.66,0,19.81-9.23,22.88-19.44h3.22V114.68z M655.05,116.9c24.36-23.99,19.81-47.48,10.33-47.48c-7.01,0-12.06,13.16-12.06,31.62
		C653.33,106.81,653.82,112.1,655.05,116.9z"/>
</g>
</svg>
