<?xml version="1.0" encoding="utf-8"?>
<!-- Generator: Adobe Illustrator 27.4.0, SVG Export Plug-In . SVG Version: 6.00 Build 0)  -->
<svg version="1.1" id="Layer_1" xmlns="http://www.w3.org/2000/svg" xmlns:xlink="http://www.w3.org/1999/xlink" x="0px" y="0px"
	 viewBox="0 0 1080 1080" style="enable-background:new 0 0 1080 1080;" xml:space="preserve">
<style type="text/css">
	.st0{fill:#FFFFFF;}
	.st1{fill:#7EB5F2;}
</style>
<g>
	<path class="st0" d="M481.8,1048.2c-1,0-1.9,0.2-2.6,0.7c0-0.3,0-0.6-0.1-0.9c0.2,0,0.5,0.1,0.7,0.1c6.2,0,6.6-9,1.2-10.1
		c5.7-0.9,5.4-10.2-0.9-10.2c-2.2,0-3.7,1.2-4.4,2.7c-1.3-0.6-2.8-0.7-4.4,0.1c-3.8,1.9-6.5-1.2-9.7-2.7c-3.2-1.5-6.6-2-10-2.7
		c-6.4-1.3-12.8-2.7-19.3-3c0.1-1-0.2-2-0.9-3c-1.1-1.6,0.1-6.5,0.2-8.3c0.2-3.3,0.3-6.6,0.5-9.9c0.3-6.6,0.7-13.2,1-19.8
		c0.1-1.3-0.3-2.3-0.9-3.1c1-4.8,0.2-10.1-0.3-15.2c1.1-0.8,1.8-2.1,1.8-3.9c-0.1-11.9-0.4-23.8-0.7-35.7c0-0.8-0.2-1.5-0.5-2.1
		c0.4-5.2-1.5-10-2.1-15.2c-0.6-5.2-0.3-10.2-1.6-15.3c-0.3-1-0.8-1.8-1.4-2.4c0.5-0.4,0.9-1,1.2-1.7c3.6-8,7.7-15.8,8-24.7
		c0.2-8.5-2.5-16.7-7.5-23.5c-1-1.3-2.2-2-3.5-2.2c-0.4-0.4-0.7-0.7-1.1-1c0.2-2.8,0.4-5.6,0.7-8.4c3.2-4.6,4-10.9,2.2-16.3
		c0.5-2.6,1.1-5.3,1.8-7.9c2.7-10.3,8.6-21.4,8-32.2c-0.1-1-0.4-1.9-0.9-2.6c0.5-1.8,1.1-3.7,1.6-5.5c1.3-4.8,2.1-9.7,2.5-14.7
		c0.4-5.4,0.3-10.7,3.2-15.5c1-1.6,0.9-3.1,0.4-4.4c0.2-0.3,0.4-0.7,0.6-1c2.2-4.2,2.4-8.2,1.7-12.8c-0.6-4-1.3-8-1.9-12
		c-0.6-3.9-4.4-8.1-7.7-10c-3.6-2.1-8.8-3-12.9-1.7c-4,1.3-7.9,3.8-10,7.7c-0.1,0.2-0.2,0.3-0.2,0.5c-1.7-0.6-3.5-1-5.3-1.2
		c-9.9-1-19.9-3.1-29.4-6.4c-0.9-7.5-6.2-14.3-16-14.3c-12.9,0-18,12-15.5,21.6c-0.9,3.4-0.7,7.3,0.5,10.8c-1.9,1.8-2.5,4.7,0,7
		c1.8,1.6,1.4,6.3,1.7,8.7c0.5,3.5,1.1,7.1,1.7,10.6c1.3,7,2.9,14,4.7,20.9c0.1,0.5,0.3,0.8,0.5,1.2c0,0.9,0.1,1.9,0.1,2.8
		c0.1,1.8,0.9,3,2,3.9c0.1,2.7,0.2,5.4,0.3,8.1c0,1.3,0.5,2.4,1.2,3.2c1.1,11.8,2.6,26.3,10.4,35.3c0.4,0.5,0.8,0.8,1.3,1
		c1.4,5.5,3,11,4.6,16.4c0.5,1.5,1.3,2.5,2.4,3c0.7,10.6,2,21.1,3.7,31.5c0,0.2,0.1,0.4,0.2,0.6c-0.6,0.8-1,1.8-0.9,3.2
		c0.7,7.7,1.6,15.3,2.8,22.9c1,6.4,2,12.6,6.8,17.3c1,1,2.2,1.4,3.3,1.5c0.1,6.7,0.2,13.4,0.3,20.2c0,0.9,0.2,1.6,0.6,2.3
		c-2.2,2-2.2,5.9,0,7.9c-1.5,10.9-2.3,22-2.3,33c0,2.6,1.6,4.2,3.5,4.7c-0.1,1.8-0.1,3.5-0.2,5.3c-0.2,6.7-1.6,15.4,0.8,21.8
		c0.2,0.6,0.5,1.1,0.9,1.6c-0.3,0.6-0.5,1.3-0.4,2.1c0.2,2.6-0.3,5.2,0.6,7.7c0.7,1.8,1.8,3.5,3.4,4.6c0.4,0.9,0.8,1.8,1.3,2.7
		c-0.5,0.3-1,0.6-1.5,0.9c-1.5,0.9-2.6,2.7-2.5,4.4c0.4,6.4-0.1,13.9,7.5,16.1c0,0,0,0,0,0c0,0.1,0,0.2,0.1,0.3
		c5.5,17.7,26.7,14.3,41.3,14.4c0.3,0.1,0.6,0.3,1,0.3c8.6,2.1,17.4,3.2,26.3,3.1c2.4,0,3.9-1.4,4.6-3.1c0.5,0.2,1,0.3,1.6,0.3
		C488.4,1058.4,488.4,1048.2,481.8,1048.2z M405.7,911.5c-0.1,1.2-0.3,2.4-0.5,3.5l-0.1-3.6C405.4,911.5,405.5,911.5,405.7,911.5z
		 M406.6,952.9c-0.6-0.4-1.3-0.7-2-0.8c0.1-1.3,0.3-2.7,0.4-4c0.5,0.8,1.2,1.5,2.1,2C406.9,950.9,406.7,951.9,406.6,952.9z
		 M412.9,925.3c0.4-0.4,0.7-0.9,1-1.5c0,0.5,0,0.9,0.1,1.4C413.6,925.2,413.2,925.2,412.9,925.3z M419.9,889
		c-0.3-0.1-0.6-0.2-0.9-0.3c0.7-0.3,1.4-0.8,2-1.2c0.1,0.1,0.2,0.2,0.3,0.3C420.8,888,420.3,888.5,419.9,889z"/>
	<path class="st0" d="M689.3,1047.1c-1,0-1.9,0.2-2.6,0.7c0-0.3,0-0.6-0.1-0.9c0.2,0,0.5,0.1,0.7,0.1c6.2,0,6.6-9,1.2-10.1
		c5.7-0.9,5.4-10.2-0.9-10.2c-2.2,0-3.7,1.2-4.4,2.7c-1.3-0.6-2.8-0.7-4.4,0.1c-3.8,1.9-6.5-1.2-9.7-2.7c-3.2-1.5-6.6-2-10-2.7
		c-6.4-1.3-12.8-2.7-19.3-3c0.1-1-0.2-2-0.9-3c-1.1-1.6,0.1-6.5,0.2-8.3c0.2-3.3,0.3-6.6,0.5-9.9c0.3-6.6,0.7-13.2,1-19.8
		c0.1-1.3-0.3-2.3-0.9-3.1c1-4.8,0.2-10.1-0.3-15.2c1.1-0.8,1.8-2.1,1.8-3.9c-0.1-11.9-0.4-23.8-0.7-35.7c0-0.8-0.2-1.5-0.5-2.1
		c0.3-5.2-1.5-10-2.1-15.2c-0.6-5.2-0.3-10.2-1.6-15.3c-0.3-1-0.8-1.8-1.4-2.4c0.5-0.4,0.9-1,1.2-1.7c3.6-8,7.7-15.8,8-24.7
		c0.2-8.5-2.5-16.7-7.5-23.5c-1-1.3-2.2-2-3.5-2.2c-0.3-0.4-0.7-0.7-1.1-1c0.2-2.8,0.4-5.6,0.7-8.4c3.2-4.6,4-10.9,2.2-16.3
		c0.5-2.6,1.1-5.3,1.8-7.9c2.7-10.3,8.6-21.4,8-32.2c-0.1-1-0.4-1.9-0.8-2.6c0.5-1.8,1.1-3.7,1.6-5.5c1.3-4.8,2.2-9.7,2.5-14.7
		c0.4-5.4,0.3-10.7,3.2-15.5c0.4-0.6,0.6-1.2,0.7-1.8c0.8-2,1.2-4.1,1-6.4c-0.2-1.6-0.3-3.1-0.3-4.7c0-0.4,0-0.9,0.1-1.5
		c0.4-1,0.8-2,1.2-3c0.6-2.2,0.9-4.5,0.8-6.7c-0.1-5.3-2.1-10.8-5.9-14.7c-6-6-16.1-6.4-22.8-1.3c-4.9,3.8-9.3,8.7-13.5,13.3
		c-2.7,3-4.7,6.1-5.6,9.7l-23.9-3.5c-1.6-0.5-3.3-0.8-5.1-0.8c-0.1,0-0.2,0-0.3,0c-3-0.5-6.1-0.9-9.1-1.3c-0.8-0.1-1.6-0.1-2.3,0.1
		c-0.6-0.5-1.2-0.9-1.8-1.3c-1-0.6-2-0.7-3-0.6c-4.7-2-10.2,4.2-5.8,8.2c1.8,1.6,1.4,6.3,1.7,8.7c0.5,3.5,1.1,7.1,1.7,10.6
		c1.3,7,2.9,14,4.7,20.9c0.1,0.5,0.3,0.8,0.5,1.2c0,0.9,0.1,1.9,0.1,2.8c0.1,1.8,0.9,3,2,3.9c0.1,2.7,0.2,5.4,0.3,8.1
		c0,1.3,0.5,2.4,1.2,3.2c1.1,11.8,2.6,26.3,10.4,35.3c0.4,0.5,0.8,0.8,1.3,1c1.4,5.5,3,11,4.6,16.4c0.5,1.5,1.3,2.5,2.4,3
		c0.7,10.6,2,21.1,3.7,31.5c0,0.2,0.1,0.4,0.2,0.6c-0.6,0.8-1,1.8-0.8,3.2c0.7,7.7,1.6,15.3,2.8,22.9c1,6.4,2,12.6,6.8,17.3
		c1,1,2.2,1.4,3.3,1.5c0.1,6.7,0.2,13.4,0.3,20.2c0,0.9,0.2,1.6,0.6,2.3c-2.2,2-2.2,5.9,0,7.9c-1.5,10.9-2.3,22-2.3,33
		c0,2.6,1.6,4.2,3.5,4.7c-0.1,1.8-0.1,3.5-0.2,5.3c-0.2,6.7-1.6,15.4,0.8,21.8c0.2,0.6,0.5,1.1,0.9,1.6c-0.3,0.6-0.5,1.3-0.4,2.1
		c0.2,2.6-0.3,5.2,0.6,7.7c0.7,1.8,1.8,3.5,3.4,4.6c0.4,0.9,0.8,1.8,1.3,2.7c-0.5,0.3-1,0.6-1.5,0.9c-1.5,0.9-2.7,2.7-2.5,4.4
		c0.4,6.4-0.1,13.9,7.5,16.1c0,0,0,0,0,0c0,0.1,0,0.2,0.1,0.3c5.5,17.7,26.7,14.3,41.3,14.4c0.3,0.1,0.6,0.3,1,0.3
		c8.6,2.1,17.4,3.2,26.3,3.1c2.4,0,3.9-1.4,4.6-3.1c0.5,0.2,1,0.3,1.6,0.3C695.9,1057.4,695.9,1047.1,689.3,1047.1z M613.2,910.5
		c-0.1,1.2-0.3,2.4-0.5,3.5l-0.1-3.6C612.9,910.5,613,910.5,613.2,910.5z M614.1,951.8c-0.6-0.4-1.3-0.7-2-0.8
		c0.1-1.3,0.3-2.7,0.4-4c0.5,0.8,1.2,1.5,2.1,2C614.4,949.9,614.2,950.8,614.1,951.8z M620.4,924.2c0.4-0.4,0.7-0.9,1-1.5
		c0,0.5,0,0.9,0.1,1.4C621.1,924.1,620.8,924.2,620.4,924.2z M627.4,887.9c-0.3-0.1-0.6-0.2-0.9-0.3c0.7-0.3,1.4-0.8,2-1.2
		c0.1,0.1,0.2,0.2,0.3,0.3C628.3,887,627.8,887.4,627.4,887.9z"/>
	<g>
		<g>
			<path d="M345.4,671.6c0,1.9-0.5,3.8-0.6,5.7c-0.1,2.1-0.1,4.2,0,6.4c0.1,4.2-0.1,8.4-0.1,12.6c0,4.2,0.6,8.3,1.1,12.5
				c0.5,4.1,0.9,8.2,1.4,12.3c0.5,4.1,1.5,8.1,2.2,12.1c0.6,3.9,2,7.6,2.7,11.4c0.8,4.1,1.6,8.1,2.1,12.3c0.5,4.1,1.1,8.1,2,12.1
				c0.5,2.2,0.5,4.4,0.8,6.7c0.2,1.9,0.2,3.9,1.3,5.5c1.1,1.6,1.6,3.5,2.1,5.5c0.6,2.3,0.9,4.7,1,7.1c0,1.9,3,1.9,3,0
				c0-3.9-0.8-7.9-2.2-11.5c-0.6-1.5-1.8-2.8-2-4.4c-0.2-1.9-0.3-3.8-0.5-5.8c-0.2-2-0.7-3.9-1.1-5.8c-0.5-2-0.8-4-1.1-6.1
				c-0.6-4-0.9-8.1-1.7-12.1c-0.8-3.9-1.6-7.8-2.7-11.7c-0.5-1.9-0.8-3.8-1.2-5.8c-0.4-2-0.9-4-1.2-6c-0.8-4.2-1.1-8.4-1.5-12.6
				c-0.5-4.2-1.2-8.3-1.4-12.5c-0.2-4.7,0.1-9.3,0.1-14c0-2.4-0.1-4.7,0-7.1c0.1-2.2,0.6-4.4,0.6-6.6
				C348.4,669.7,345.4,669.7,345.4,671.6L345.4,671.6z"/>
		</g>
	</g>
	<g>
		<g>
			<path d="M444.6,684.7c0,5.3,0,10.6,0,15.9c0,5.2,0.1,10.4-0.4,15.6c-0.2,2.5-0.4,5-0.8,7.5c-0.4,2.5-0.7,5.1-1,7.6
				c-0.5,5.2-1.2,10.4-2,15.6c-1.7,10.5-3.6,21-5.8,31.4c-2.2,10.4-3.8,20.9-5.8,31.3c-0.5,2.8-1.1,5.6-1.7,8.4
				c-0.6,2.8-0.9,5.5-1.3,8.3c-0.5,2.8-1.5,5.6-2.1,8.4c-0.6,2.8-1,5.7-1.4,8.5c-0.2,1.9,2.8,1.9,3,0c0.3-2.6,0.7-5.2,1.2-7.7
				c0.5-2.5,1.3-4.8,1.9-7.2c0.6-2.5,0.7-5,1.2-7.5c0.5-2.5,1.1-5,1.6-7.5c2.1-10.4,3.7-20.8,5.8-31.2c1-5.2,2.2-10.4,3.2-15.6
				c1-5.2,1.9-10.5,2.7-15.7c0.8-5.2,1.7-10.3,2.2-15.5c0.2-2.5,0.4-5.1,0.8-7.6c0.4-2.5,0.9-5,1.1-7.6c0.2-2.8,0.6-5.7,0.6-8.6
				c0-2.9,0-5.8,0-8.6c0-6,0-12,0-18.1C447.6,682.8,444.6,682.8,444.6,684.7L444.6,684.7z"/>
		</g>
	</g>
	<g>
		<g>
			<path d="M427.3,837.3c1.5-0.1,2.2,0.7,2.9,2c0.7,1.4,1.4,3,1.8,4.5c0.2,0.9,0.4,1.8,0.8,2.7c0.4,1,0.9,1.8,1.1,2.9
				c0.5,2.4,0.9,4.8,1.2,7.2c0.6,4.5,1.6,9.1,1,13.7c-0.3,2.2-1.4,4.1-2.5,6c-1.1,2-1.9,4-2.8,6c-0.5,1.1-1.2,2-1.9,3
				c-0.5,0.9-1,1.9-1.5,2.8c-1.1,2-2.3,3.9-4.1,5.3c-1.5,1.2,0.6,3.3,2.1,2.1c1.6-1.3,2.9-3.1,4-5c0.5-0.9,1-1.8,1.5-2.7
				c0.5-1.1,1.3-2.1,1.9-3.1c1.3-2.1,2-4.6,3.2-6.8c1.2-2.1,2.5-4.2,2.9-6.7c0.8-5-0.2-9.9-0.9-14.8c-0.4-2.6-0.7-5.3-1.3-7.9
				c-0.2-1-0.7-1.9-1.1-2.9c-0.5-1.1-0.6-2.3-1-3.4c-0.6-1.8-1.4-3.8-2.4-5.3c-1.1-1.8-2.9-2.8-5-2.6
				C425.4,834.5,425.4,837.5,427.3,837.3L427.3,837.3z"/>
		</g>
	</g>
	<g>
		<g>
			<path d="M427.5,894.2c0.2,0.8,0.6,1.3,1,2c0.3,0.7,0.3,1.5,0.5,2.2c0.4,2.1,0.8,4.3,1.2,6.4c0.4,2,0.8,4,0.9,6
				c0.1,2.1,0.5,4.1,0.4,6.2c0,2.1,0,4.1,0.2,6.1c0.2,2.1,0.2,4.2,0.4,6.4c0.2,2,0.5,4,0.5,6.1c0,2,0,4.1,0,6.1
				c-0.1,8.6,0.2,17.3-0.2,25.9c-0.2,4.3-0.4,8.7-0.4,13c0,4.3,0.1,8.6,0,12.9c-0.1,4.7-0.9,9.4-1.5,14c-0.3,2.3-0.7,4.6-0.8,6.9
				c-0.1,2.5,0,5,0,7.6c0,1.9,3,1.9,3,0c0-4.3,0-8.5,0.6-12.8c0.6-4.1,1.1-8.3,1.5-12.5c0.4-4.3,0.2-8.7,0.2-13.1
				c0-4.3,0.1-8.7,0.3-13c0.4-8.7,0.3-17.3,0.3-26c0-4.2,0.3-8.5-0.2-12.7c-0.2-2-0.4-4-0.5-6.1c-0.1-2.1-0.5-4.2-0.5-6.4
				c0-4.5,0-9.1-1-13.5c-0.5-2.4-1-4.7-1.4-7.1c-0.2-1-0.3-2-0.5-3c-0.2-0.9-0.9-1.6-1.1-2.5C430,891.5,427.1,892.3,427.5,894.2
				L427.5,894.2z"/>
		</g>
	</g>
	<g>
		<g>
			<path d="M432.4,1023c3.5,0,6.9,0.3,10.4,0.5c3.2,0.3,6.3,1.5,9.5,1.7c3,0.2,6.1,1.1,8.8,2.2c2.7,1.1,5,3.1,7.6,4.5
				c1.7,0.9,3.2-1.7,1.5-2.6c-2.7-1.4-5.1-3.4-7.9-4.6c-1.4-0.6-2.9-1-4.4-1.4c-1.5-0.5-3.1-0.9-4.8-1c-3.4-0.2-6.6-1.4-9.9-1.7
				c-3.6-0.4-7.2-0.6-10.8-0.6C430.5,1020,430.5,1023,432.4,1023L432.4,1023z"/>
		</g>
	</g>
	<g>
		<g>
			<path d="M470.6,1032.1c1.3,0.1,2.3-0.6,3.5-1c1.1-0.4,2.5-0.2,3.6-0.3c1.1-0.1,2.2-0.4,3.2-0.5c1-0.1,2-0.1,2.9,0.1
				c0.6,0.1,1.2,0.6,1.4,1.2c0.3,0.8,0.2,1.6,0,2.4c-0.1,0.4-0.2,0.8-0.4,1.2c-0.2,0.4-0.4,0.8-0.6,1c-0.1,0.1-0.5,0.3-0.6,0.3
				c-0.4,0.1-1,0.3-1.2,0.3c-2.2,0.3-4.5-0.2-6.7-0.2c-1.9,0-1.9,3,0,3c2.3,0,4.5,0.4,6.8,0.2c1.2-0.1,2.3-0.4,3.3-1.1
				c1-0.7,1.6-1.9,2.1-3c0.9-2.3,0.8-5.2-1.1-7c-1.9-1.7-4.9-1.5-7.3-1.1c-0.6,0.1-1.2,0.3-1.9,0.3c-0.9,0.1-1.9,0.1-2.8,0.1
				c-0.9,0.1-1.6,0.3-2.4,0.7c-0.6,0.3-1.1,0.6-1.8,0.5c-0.8-0.1-1.5,0.8-1.5,1.5C469.1,1031.5,469.8,1032,470.6,1032.1
				L470.6,1032.1z"/>
		</g>
	</g>
	<g>
		<g>
			<path d="M476,1040.4c0.9,0,1.8-0.1,2.8,0c0.8,0.1,1.8,0.2,2.6,0.4c0.1,0,0.2,0.1,0.3,0.1c0.3,0.1-0.1-0.1,0.1,0c0.1,0,0,0,0,0
				c0,0,0.1,0.1,0.1,0.2c0.1,0.1,0,0,0,0c0,0.1,0.1,0.2,0.1,0.2c0.1,0.1,0.2,0.3,0.2,0.4c0.4,0.7,1,1.3,1.5,2
				c0.5,0.7,1.1,1.2,1.8,1.7c0.1,0.1,0.2,0.2,0.4,0.2c0,0,0.2,0.2,0.1,0c-0.1-0.1,0,0.1,0,0.1c0,0,0,0,0,0c0.1,0.1,0.1,0.1,0-0.1
				c0,0,0.1,0.3,0,0c0-0.1,0-0.2,0-0.2c0-0.2,0.1-0.2,0,0c0,0,0.1-0.2,0.1-0.2c0-0.1,0.2,0,0,0c0,0-0.2,0.1-0.2,0.1c0,0,0.2-0.1,0,0
				c-0.5,0.2-0.9,0.4-1.4,0.6c-0.8,0.4-1.5,0.8-2.3,1c-0.9,0.2-1.9,0.2-2.9,0.2c-0.6,0-1.2,0.1-1.8,0.2c-0.5,0.1-1,0.4-1.5,0.5
				c-0.8,0.2-1.3,1.1-1,1.8c0.2,0.8,1,1.2,1.9,1.1c0.5-0.1,0.9-0.3,1.4-0.5c0.5-0.1,1.1-0.1,1.6-0.1c1.1,0,2.1,0,3.2-0.3
				c1.1-0.3,2-0.8,3-1.3c0.9-0.4,1.9-0.7,2.5-1.6c0.6-0.9,0.5-2.1-0.2-3c-0.3-0.4-0.6-0.6-1-0.9c-0.1-0.1-0.3-0.2-0.4-0.3
				c0,0-0.1-0.1-0.1-0.1c-0.1-0.1-0.1,0,0,0c0,0-0.1-0.1-0.1-0.1c-0.3-0.3-0.6-0.7-0.9-1.1c-0.2-0.2-0.3-0.4-0.5-0.6
				c-0.1-0.1-0.1-0.1-0.2-0.2c-0.3-0.3,0.1,0.2-0.1-0.2c-0.4-0.8-0.9-1.6-1.7-2.1c-1.1-0.7-2.4-0.6-3.6-0.8
				c-1.3-0.2-2.5-0.1-3.8-0.1C474,1037.5,474,1040.5,476,1040.4L476,1040.4z"/>
		</g>
	</g>
	<g>
		<g>
			<path d="M476.4,1050.7c2.5,0,5-0.3,7.4,0.2c0.5,0.1,1,0.2,1.5,0.5c0.5,0.3,0.9,0.6,1.3,0.9c0.3,0.2,1,0.5,1.1,0.7
				c-0.1-0.1,0,0.2,0,0.1c0,0.2,0,0.3,0,0.5c-0.5,2.1-2.8,2-4.6,2c-1.3,0-2.7-0.3-4-0.3c-0.6,0-1.2,0.1-1.8,0.1
				c-0.5,0-1-0.2-1.5-0.2c-1.9-0.1-1.9,2.9,0,3c0.4,0,0.9,0.2,1.3,0.2c0.6,0,1.2,0,1.8-0.1c1.2,0,2.4,0.2,3.6,0.2
				c2.3,0.1,4.7,0.2,6.6-1.5c1.6-1.4,2.5-4.3,1-6.1c-0.6-0.7-1.6-1.1-2.4-1.7c-0.9-0.7-1.9-1.1-3.1-1.4c-2.7-0.6-5.4-0.3-8.1-0.3
				C474.5,1047.7,474.5,1050.7,476.4,1050.7L476.4,1050.7z"/>
		</g>
	</g>
	<g>
		<g>
			<path d="M477,1058.2c1,0,2.2-0.2,3.1,0.2c0.4,0.2,0.9,0.8,0.8,0.1c-0.1-0.7,0-0.3-0.4-0.1c-0.2,0.1-0.4,0.3-0.6,0.5
				c-1.9,1.3-3.9,1.3-6.1,1.3c-2.1,0-4.4,0.1-6.5-0.4c-2-0.5-3.9-1.2-5.8-1.6c-2.2-0.4-4.4-1.1-6.6-1.3c-2.2-0.2-4.4-0.4-6.5-0.6
				c-4.6-0.4-9.3,0.3-13.9,0.1c-2.4-0.1-4.7-0.8-7.2-0.8c-2.6,0-5.2,0-7.9,0c-1.9,0-1.9,3,0,3c2.6,0,5.2,0,7.9,0
				c2.6,0,5,0.8,7.6,0.8c2.5,0.1,5-0.2,7.6-0.2c2.8,0,5.5,0,8.2,0.2c2.5,0.2,5,0.4,7.5,1c1.2,0.3,2.5,0.5,3.8,0.8
				c1.1,0.3,2.2,0.7,3.3,1c1.1,0.2,2.2,0.6,3.3,0.7c1.3,0.1,2.5,0,3.8,0.1c2.4,0,5.1,0.3,7.4-0.8c1.7-0.8,4.7-2.6,3.8-4.8
				c-0.4-1-1.5-1.5-2.4-1.9c-1.4-0.6-2.8-0.5-4.2-0.5C475.1,1055.2,475.1,1058.2,477,1058.2L477,1058.2z"/>
		</g>
	</g>
	<g>
		<g>
			<path d="M418.9,1055.6c-0.5,0-1,0-1.4,0c-0.1,0-0.2,0-0.4,0c0,0-0.1,0-0.1,0c0.1,0,0.1,0,0,0c-0.2-0.1-0.4-0.1-0.6-0.2
				c-0.2-0.1-0.4-0.1-0.6-0.2c-0.1,0-0.2-0.1-0.3-0.1c-0.2-0.1,0.3,0.1-0.1,0c-0.2-0.1-0.4-0.2-0.5-0.3c-0.1-0.1-0.2-0.1-0.3-0.2
				c-0.2-0.1,0,0-0.1-0.1c-0.4-0.3-0.7-0.6-0.9-1c-0.1-0.1-0.1-0.2-0.2-0.2c-0.3-0.4,0.1,0.1-0.1-0.1c-0.2-0.2-0.4-0.5-0.6-0.8
				c-0.2-0.2,0.2,0.3-0.1-0.1c-0.1-0.1-0.1-0.2-0.2-0.2c-0.1-0.1-0.1-0.2-0.2-0.3c-0.1-0.1,0,0.1-0.1-0.1c-0.3-0.6-0.5-1.1-1-1.7
				c-0.5-0.6-1.6-0.6-2.1,0c-0.6,0.7-0.5,1.5,0,2.1c-0.1-0.2,0.1,0.2,0.1,0.2c0,0.1,0.1,0.2,0.1,0.3c0.2,0.4-0.1-0.3,0.1,0.2
				c0.1,0.2,0.1,0.4,0.2,0.6c0.3,0.5,0.7,1,1,1.4c-0.1-0.1,0-0.1,0,0c0.1,0.2,0.3,0.3,0.4,0.5c0.1,0.2,0.3,0.4,0.5,0.6
				c0.4,0.4,0.8,0.8,1.3,1.2c0.8,0.6,1.8,0.9,2.8,1.2c1.1,0.3,2.2,0.3,3.3,0.3c0.8,0,1.5-0.7,1.5-1.5
				C420.3,1056.3,419.7,1055.6,418.9,1055.6L418.9,1055.6z"/>
		</g>
	</g>
	<g>
		<g>
			<path d="M413.1,1045.4c-1.3,0-2.7,0.2-4-0.3c-1.3-0.4-2.5-1.1-3.5-2c-2-1.9-3.9-4.3-5-6.9c-0.5-1.2-1.2-2.5-1.4-3.8
				c-0.2-1.3-0.4-2.8-0.2-4.1c0.1-1.2,0.8-2.2,1.7-3c0.7-0.7,1.8-1.7,2.8-1.7c1.9-0.1,1.9-3.1,0-3c-2.8,0.1-5.8,2.8-6.9,5.3
				c-1.4,3.2-0.5,7.3,0.8,10.3c0.8,1.7,1.4,3.3,2.5,4.8c1,1.4,2.2,2.8,3.4,4.1c1.3,1.3,2.7,2.1,4.3,2.7c1.8,0.7,3.5,0.6,5.4,0.6
				C415,1048.4,415,1045.4,413.1,1045.4L413.1,1045.4z"/>
		</g>
	</g>
	<g>
		<g>
			<path d="M400.7,1016.9c-0.9-0.9-1.2-2.7-1.5-3.9c-0.4-1.8-0.5-3.8-0.6-5.7c-0.1-3.9,0-7.8-0.1-11.7c-0.1-7.6-1.6-15.1-2.3-22.7
				c-0.4-3.8-0.6-7.6-0.6-11.3c0-3.7-0.2-7.4-0.2-11c0-7.7-0.1-15.4,0.4-23.1c0.2-4.4,0.6-8.8,0.7-13.1c0.1-1.9,0-3.8,0.4-5.7
				c0.4-2,1.5-3.8,1.9-5.8c0.4-1.9-2.5-2.7-2.9-0.8c-0.4,1.7-1.1,3.3-1.6,5c-0.6,1.7-0.6,3.7-0.7,5.5c-0.1,3.9-0.3,7.9-0.6,11.8
				c-0.6,8.1-0.6,16.2-0.6,24.3c0,3.7,0.3,7.5,0.2,11.2c0,3.9,0.2,7.9,0.5,11.8c0.6,7.9,2.3,15.6,2.4,23.6c0.1,4.4-0.1,8.8,0.1,13.2
				c0.1,2.1,0.3,4.3,0.9,6.4c0.4,1.5,0.9,3.2,2,4.3C400,1020.4,402.1,1018.3,400.7,1016.9L400.7,1016.9z"/>
		</g>
	</g>
	<g>
		<g>
			<path d="M361.6,791.5c0.1,4.1,1.1,8.2,2.3,12.1c1.2,3.9,3.2,7.4,5,11.1c1.9,3.9,3.3,7.9,4.9,12c0.8,2,1.5,3.9,2.2,5.9
				c0.7,1.9,1.4,3.7,2.7,5.2c1.2,1.5,3.4-0.7,2.1-2.1c-1.2-1.5-1.8-3.5-2.4-5.3c-0.7-1.9-1.4-3.8-2.1-5.7c-1.4-3.8-2.9-7.5-4.6-11.2
				c-1.6-3.5-3.5-6.7-4.7-10.4c-1.2-3.8-2.3-7.8-2.4-11.8C364.5,789.6,361.5,789.6,361.6,791.5L361.6,791.5z"/>
		</g>
	</g>
	<g>
		<g>
			<path d="M378.5,838.5c0,5.2-0.1,10.2,0.8,15.3s1.7,10.1,2,15.3c0.1,2.5,0.2,5.1,0.1,7.7c0,1.1-0.1,2.2,0.1,3.4
				c0.1,1.2,0.5,2.3,0.5,3.5c0,1.1,0.1,2.2,0.3,3.3c0.2,1.3,0.7,2.5,0.9,3.8c0.1,1.1-0.1,2.3,0.1,3.4c0.1,1.2,0.4,2.4,0.6,3.7
				c0.4,2.2,0.9,4.4,2.5,6.1c0.8,0.9,1.8,1.6,2.6,2.5c0.9,1.1,1.7,2.3,2.4,3.5c1,1.6,3.6,0.1,2.6-1.5c-1.2-1.9-2.4-3.8-4-5.3
				c-0.7-0.6-1.5-1.2-2-2.1c-0.5-0.9-0.7-1.9-0.9-2.9c-0.2-1.1-0.5-2.2-0.6-3.3c-0.2-1.2-0.1-2.4-0.1-3.7c0-2.4-1.1-4.6-1.2-6.9
				c0-2.2-0.7-4.4-0.6-6.6c0-2.5,0.1-4.9,0-7.3c-0.2-5-0.8-9.9-1.7-14.8c-0.5-2.7-1-5.5-1.1-8.3c-0.1-2.9,0-5.9,0-8.8
				C381.5,836.5,378.5,836.5,378.5,838.5L378.5,838.5z"/>
		</g>
	</g>
	<g>
		<g>
			<path d="M376.2,706.2c-0.2,1.8,0.4,3.4,0.9,5.1c0.5,1.7,0.8,3.3,1.1,5c0.5,3.6,0.9,7.3,0.8,11c0,1.9,3,1.9,3,0
				c0-3.7-0.4-7.3-0.8-11c-0.2-1.7-0.5-3.4-1-5.1c-0.5-1.7-1.2-3.3-1-5.1c0.1-0.8-0.8-1.5-1.5-1.5
				C376.8,704.6,376.3,705.3,376.2,706.2L376.2,706.2z"/>
		</g>
	</g>
	<g>
		<g>
			<path d="M393.7,717.5c1.2,1.1,1.3,2.9,1.5,4.5c0.4,2.3,0.7,4.6,0.9,7c0.1,0.8,0.6,1.5,1.5,1.5c0.8,0,1.6-0.7,1.5-1.5
				c-0.3-2.7-0.7-5.3-1-8c-0.3-2-0.6-4.2-2.2-5.7c-0.6-0.5-1.5-0.6-2.1,0C393.2,715.9,393.1,716.9,393.7,717.5L393.7,717.5z"/>
		</g>
	</g>
	<g>
		<g>
			<path d="M472.8,697.7c1.8,3.7,1.5,7.8,1.5,11.8c0,1.9,3,1.9,3,0c0-4.5,0.2-9.1-1.9-13.3c-0.4-0.7-1.4-0.9-2-0.5
				C472.6,696.1,472.4,697,472.8,697.7L472.8,697.7z"/>
		</g>
	</g>
	<g>
		<g>
			<path d="M400.2,751.6c0.1,0.3,0.1,0.7,0.2,1c0.1,0.5,0-0.3,0,0.2c0,0.2,0,0.3,0,0.4c0.1,0.7,0.1,1.3,0.2,2c0.1,1.3,0.1,2.6,0.1,4
				c0,0.8,0.7,1.5,1.5,1.5s1.5-0.7,1.5-1.5c0-2.8-0.1-5.6-0.6-8.4c-0.1-0.8-1.1-1.3-1.9-1C400.4,750,400,750.8,400.2,751.6
				L400.2,751.6z"/>
		</g>
	</g>
	<g>
		<g>
			<path d="M383,755.8c-0.2,1.9,0.9,3.6,1.2,5.4c0.2,2,0,4,0,6c0,1.9,3,1.9,3,0c0-2,0.2-4,0-6c-0.1-1-0.3-1.9-0.6-2.9
				c-0.3-0.9-0.6-1.6-0.5-2.5c0.1-0.8-0.7-1.5-1.5-1.5C383.6,754.3,383.1,755,383,755.8L383,755.8z"/>
		</g>
	</g>
	<g>
		<g>
			<path d="M413.3,772.7c1.2,3.3,1.1,6.8,1.1,10.3c0,3.8,0,7.7,0,11.5c0,1.9,3,1.9,3,0c0-4,0-8,0-11.9c0-3.6,0.1-7.2-1.2-10.7
				C415.5,770.1,412.6,770.9,413.3,772.7L413.3,772.7z"/>
		</g>
	</g>
	<g>
		<g>
			<path d="M393.3,801.4c0,6.8-0.8,13.5-2.2,20.1c-0.4,1.9,2.5,2.7,2.9,0.8c1.5-6.9,2.3-13.9,2.3-20.9
				C396.3,799.5,393.3,799.5,393.3,801.4L393.3,801.4z"/>
		</g>
	</g>
	<g>
		<g>
			<path d="M396.2,861.7c0.3,2,1,3.9,1.1,5.9c0.2,2.1,0.5,4.2,0.5,6.3c0,1.9,3,1.9,3,0c0-2.2-0.3-4.3-0.5-6.5
				c-0.2-2.2-0.9-4.3-1.2-6.4c-0.1-0.8-1.1-1.2-1.9-1C396.4,860,396,860.8,396.2,861.7L396.2,861.7z"/>
		</g>
	</g>
	<g>
		<g>
			<path d="M402.3,828.1c0.3,0.2,0.5,0.5,0.8,0.8c0.1,0.2-0.2-0.3,0,0c0,0.1,0.1,0.1,0.1,0.2c0.1,0.2,0.2,0.3,0.3,0.5
				c0.1,0.2,0.2,0.3,0.3,0.5c0,0.1,0.1,0.2,0.1,0.3c-0.1-0.2,0-0.1,0,0.1c0.1,0.4,0.3,0.8,0.4,1.2c0.1,0.4,0.2,0.8,0.2,1.2
				c0,0.1,0,0.2,0,0.3c0,0.2,0-0.2,0,0c0,0.2,0,0.4,0.1,0.6c0.1,0.8,0.1,1.6,0,2.4c-0.1,0.8,0.7,1.5,1.5,1.5c0.9,0,1.4-0.7,1.5-1.5
				c0.3-3.5-0.5-7.8-3.3-10.2c-0.6-0.5-1.5-0.6-2.1,0C401.8,826.5,401.6,827.6,402.3,828.1L402.3,828.1z"/>
		</g>
	</g>
	<g>
		<g>
			<path d="M416.5,868.6c0.1,0.1,0.2,0.2,0.2,0.2c0,0,0.2,0.3,0.1,0.1c0.1,0.2,0.2,0.3,0.3,0.5c0.1,0.2,0.2,0.3,0.3,0.5
				c-0.1-0.3,0.1,0.2,0.1,0.3c0.1,0.4,0.2,0.8,0.3,1.3c0,0.3,0-0.1,0,0.1c0,0.1,0,0.2,0,0.3c0,0.2,0,0.5,0,0.7
				c0.1,1.7-0.1,3.5-0.1,5.2c0,0.8,0.7,1.5,1.5,1.5c0.8,0,1.5-0.7,1.5-1.5c0-3.8,0.9-8.3-2.1-11.3
				C417.3,865.1,415.2,867.2,416.5,868.6L416.5,868.6z"/>
		</g>
	</g>
	<g>
		<g>
			<path d="M409.8,920c0,2.3,0.6,4.6,0.6,6.9c0.1,2.4,0,4.9,0,7.3c0,1.9,3,1.9,3,0c0-2.4,0.1-4.9,0-7.3c-0.1-2.3-0.6-4.6-0.6-6.9
				C412.8,918.1,409.8,918.1,409.8,920L409.8,920z"/>
		</g>
	</g>
	<g>
		<g>
			<path d="M411,969.6c0,1.5,0,3,0,4.6c0,0.8,0.7,1.5,1.5,1.5s1.5-0.7,1.5-1.5c0-1.5,0-3,0-4.6c0-0.8-0.7-1.5-1.5-1.5
				C411.6,968.1,411,968.8,411,969.6L411,969.6z"/>
		</g>
	</g>
	<g>
		<g>
			<path d="M422.7,967.1C422.9,967.1,422.9,967.2,422.7,967.1c0-0.1-0.4-0.2-0.1-0.1c-0.2-0.1-0.1-0.2-0.2-0.1c-0.1,0.1,0-0.2,0,0.1
				c0-0.1-0.1-0.3,0-0.1c0,0.1,0,0.2,0.1,0.3c0,0.1,0,0.2,0.1,0.3c0.1,0.3,0-0.1,0,0c0.1,0.8,0,1.6,0.1,2.4c0,1.2,0.3,2.5,0.3,3.7
				c0,1.7,0,3.4,0,5c0,1.9,3,1.9,3,0c0-1.9,0.1-3.8,0-5.7c0-1-0.2-2-0.3-3c0,0.4,0,0.2,0-0.1c0-0.2,0-0.4,0-0.7
				c0-1.9-0.1-5.4-2.9-5.2c-0.8,0.1-1.5,0.6-1.5,1.5C421.2,966.4,421.9,967.2,422.7,967.1L422.7,967.1z"/>
		</g>
	</g>
	<g>
		<g>
			<path d="M421.2,937.7c0,0.9,0.4,1.6,0.5,2.5c0.2,0.9,0,1.8,0,2.7c0,2.1,0,4.1,0,6.2c0,1.9,3,1.9,3,0c0-2.1,0-4.1,0-6.2
				c0-1,0.1-2.1-0.1-3.1c-0.1-0.4-0.2-0.9-0.3-1.3c0-0.1-0.1-0.3-0.1-0.4c0-0.2,0-0.2,0,0c0-0.1,0-0.2,0-0.4c0-0.8-0.7-1.5-1.5-1.5
				C421.9,936.2,421.2,936.8,421.2,937.7L421.2,937.7z"/>
		</g>
	</g>
	<g>
		<g>
			<path d="M425.2,912.6c0,0.4,0.1,0.9,0.2,1.3c0.1,0.4,0.3,0.8,0.5,1.2c0.2,0.3,0.5,0.6,0.9,0.7c0.2,0.1,0.4,0.1,0.6,0
				c0.2,0,0.4-0.1,0.6-0.2c0.3-0.2,0.6-0.5,0.7-0.9c0-0.1,0-0.3,0-0.4c0-0.3-0.1-0.5-0.2-0.8c-0.1-0.2-0.2-0.4-0.3-0.6
				c0,0.1,0.1,0.2,0.1,0.4c-0.1-0.3-0.2-0.6-0.2-0.9c0,0.1,0,0.3,0,0.4c0-0.1,0-0.2,0-0.3c0-0.2,0-0.4-0.1-0.6
				c-0.1-0.2-0.2-0.3-0.3-0.5c-0.1-0.2-0.3-0.2-0.5-0.3c-0.2-0.1-0.4-0.1-0.6-0.1c-0.4,0-0.8,0.1-1.1,0.4
				C425.4,911.8,425.2,912.2,425.2,912.6L425.2,912.6z"/>
		</g>
	</g>
	<g>
		<g>
			<path d="M404.6,948.6c-2,2.1-2.2,5.2-2.1,7.9c0,0.8,0.7,1.5,1.5,1.5c0.8,0,1.5-0.7,1.5-1.5c0-0.6,0-1.1,0-1.7
				c0-0.3,0-0.6,0.1-0.9c0-0.1,0-0.1,0-0.2c0,0,0-0.3,0-0.1c0,0.2,0,0,0,0c0-0.1,0-0.2,0-0.2c0.1-0.6,0.3-1.1,0.5-1.7
				c0.1-0.2-0.1,0.3,0,0c0-0.1,0-0.1,0.1-0.2c0.1-0.1,0.1-0.2,0.2-0.4c0.1-0.1,0.2-0.2,0.2-0.3c0,0.1-0.2,0.2-0.1,0.1
				c0.1-0.1,0.1-0.1,0.2-0.2c0.5-0.6,0.6-1.6,0-2.1C406.1,948,405.1,948,404.6,948.6L404.6,948.6z"/>
		</g>
	</g>
	<g>
		<g>
			<path d="M410.4,994.9c-1,2.5-0.6,5.3-0.6,8c0,2.8,0,5.6,0,8.4c0,1.9,3,1.9,3,0c0-2.7,0-5.4,0-8.1c0-2.5-0.4-5.1,0.5-7.5
				c0.3-0.8-0.3-1.7-1-1.8C411.4,993.6,410.7,994.1,410.4,994.9L410.4,994.9z"/>
		</g>
	</g>
	<g>
		<g>
			<path d="M551.8,683.4c-0.6,3.7-0.8,7.5-0.8,11.2c0,1.7,0.3,3.4,0.6,5.1c0.2,2,0.5,3.9,0.7,5.8c0.9,7.4,1.7,14.8,2.6,22.2
				c1.8,14.5,4.2,29,8.6,43.1c0.6,2,1.3,3.9,2,5.8c0.6,1.7,1.3,3.3,1.5,5.2c0.4,3.8,0.1,7.7,1.5,11.3c0.7,1.8,3.6,1,2.9-0.8
				c-1.3-3.3-1.1-6.7-1.4-10.1c-0.3-3.3-1.7-6.4-2.7-9.5c-2.3-6.8-4.1-13.8-5.5-20.9c-2.9-14.3-4.4-28.8-6.1-43.2
				c-0.5-4.1-1-8.1-1.5-12.2c-0.3-1.9-0.1-3.9-0.1-5.8c0.1-2.2,0.2-4.3,0.6-6.5C555,682.3,552.1,681.5,551.8,683.4L551.8,683.4z"/>
		</g>
	</g>
	<g>
		<g>
			<path d="M646.4,662c0.8,0.7,1.1,1.6,1.4,2.6c0.4,1.2,0.8,2.4,1.3,3.6c0.4,1.3,0.8,2.5,1.4,3.8c0.6,1.4,1,2.6,1.1,4.1
				c0.1,1.4,0.2,2.8,0.3,4.2c0.1,1.6,0,3.2,0,4.9c-0.1,3.1-0.2,6.3-0.2,9.4c0,3,0,6.1,0,9.2c0,3,0.2,6.1-0.1,9.1
				c-0.3,2.9-0.4,5.9-0.8,8.8c-0.4,2.9-0.9,5.8-1.2,8.8c-1.2,12.2-3.2,24.4-5.5,36.4c-1.2,6-2.5,12-3.7,18
				c-1.2,6.1-2.2,12.2-3.3,18.3c-0.6,3.3-1.2,6.7-1.9,10c-0.7,3.2-1.4,6.4-1.8,9.7c-0.4,3.4-1.4,6.5-2.2,9.8
				c-0.7,3.3-1.2,6.6-1.7,9.9c-0.2,1.9,2.8,1.9,3,0c0.4-3,0.9-6.1,1.5-9.1c0.7-2.9,1.6-5.6,2-8.6c0.8-6,2.2-12,3.4-18
				c1.1-6.1,2.2-12.2,3.3-18.3c1.1-6.2,2.5-12.3,3.7-18.5c1.2-6.2,2.3-12.4,3.3-18.6c1-6,2-12.1,2.5-18.2c0.3-3,0.6-6,1-9
				c0.5-3,0.7-6,1-9c0.6-6.2,0.3-12.5,0.4-18.7c0-3.5,0.1-6.9,0.2-10.4c0-1.8,0.2-3.6,0.1-5.4c-0.1-1.6-0.3-3.2-0.4-4.8
				c-0.1-1.5-0.5-2.9-1-4.3c-0.6-1.5-1.1-3-1.7-4.6c-0.9-2.3-1.4-5.4-3.3-7.1C647.1,658.5,644.9,660.7,646.4,662L646.4,662z"/>
		</g>
	</g>
	<g>
		<g>
			<path d="M634.3,836.5c1.5-0.1,2.2,0.7,2.9,2c0.7,1.4,1.4,3,1.8,4.5c0.2,0.9,0.4,1.8,0.8,2.7c0.4,1,0.9,1.8,1.1,2.9
				c0.5,2.4,0.9,4.8,1.2,7.2c0.6,4.5,1.6,9.1,1,13.7c-0.3,2.2-1.4,4.1-2.5,6c-1.1,2-1.9,4-2.8,6c-0.5,1.1-1.2,2-1.8,3
				c-0.5,0.9-1,1.9-1.5,2.8c-1.1,2-2.3,3.9-4.1,5.3c-1.5,1.2,0.6,3.3,2.1,2.1c1.7-1.3,2.9-3.1,4-5c0.5-0.9,1-1.8,1.5-2.7
				c0.5-1.1,1.3-2.1,1.9-3.1c1.3-2.1,2-4.6,3.2-6.8c1.2-2.1,2.5-4.2,2.8-6.7c0.8-5-0.2-9.9-0.9-14.8c-0.4-2.6-0.7-5.3-1.3-7.9
				c-0.2-1-0.7-1.9-1.1-2.9c-0.5-1.1-0.6-2.3-1-3.4c-0.6-1.8-1.4-3.8-2.4-5.3c-1.1-1.8-2.8-2.8-5-2.6
				C632.4,833.6,632.4,836.6,634.3,836.5L634.3,836.5z"/>
		</g>
	</g>
	<g>
		<g>
			<path d="M634.6,893.3c0.2,0.8,0.6,1.3,1,2c0.3,0.7,0.3,1.5,0.5,2.2c0.4,2.1,0.8,4.3,1.2,6.4c0.4,2,0.8,4,0.9,6
				c0.1,2.1,0.5,4.1,0.4,6.2c0,2.1,0,4.1,0.2,6.1c0.2,2.1,0.2,4.2,0.4,6.4c0.2,2,0.5,4,0.5,6.1c0,2,0,4.1,0,6.1
				c-0.1,8.6,0.2,17.3-0.2,25.9c-0.2,4.3-0.4,8.7-0.4,13c0,4.3,0.1,8.6,0,12.9c-0.1,4.7-0.8,9.4-1.5,14c-0.3,2.3-0.7,4.6-0.8,6.9
				c-0.1,2.5,0,5,0,7.6c0,1.9,3,1.9,3,0c0-4.3,0-8.5,0.6-12.8c0.6-4.1,1.1-8.3,1.5-12.5c0.4-4.3,0.2-8.7,0.2-13.1
				c0-4.3,0.1-8.7,0.3-13c0.4-8.7,0.3-17.3,0.3-26c0-4.2,0.3-8.5-0.2-12.7c-0.2-2-0.4-4-0.5-6.1c-0.1-2.1-0.5-4.2-0.5-6.4
				c0-4.5,0-9.1-1-13.5c-0.5-2.4-1-4.7-1.4-7.1c-0.2-1-0.3-2-0.5-3c-0.2-0.9-0.9-1.6-1.1-2.5C637.1,890.6,634.2,891.4,634.6,893.3
				L634.6,893.3z"/>
		</g>
	</g>
	<g>
		<g>
			<path d="M639.5,1022.1c3.5,0,6.9,0.3,10.4,0.5c3.2,0.3,6.3,1.5,9.5,1.7c3,0.2,6.1,1.1,8.8,2.2c2.7,1.1,5,3.1,7.6,4.5
				c1.7,0.9,3.2-1.7,1.5-2.6c-2.7-1.4-5.1-3.4-7.9-4.6c-1.4-0.6-2.9-1-4.4-1.4c-1.5-0.5-3.1-0.9-4.8-1c-3.4-0.2-6.6-1.4-9.9-1.7
				c-3.6-0.4-7.2-0.6-10.8-0.6C637.5,1019.1,637.5,1022.1,639.5,1022.1L639.5,1022.1z"/>
		</g>
	</g>
	<g>
		<g>
			<path d="M677.7,1031.2c1.3,0.1,2.3-0.6,3.5-1c1.1-0.4,2.5-0.2,3.6-0.3c1.1-0.1,2.2-0.4,3.2-0.5c1-0.1,2-0.1,2.9,0.1
				c0.6,0.1,1.2,0.6,1.4,1.2c0.3,0.8,0.2,1.6,0,2.4c-0.1,0.4-0.2,0.8-0.4,1.2c-0.2,0.4-0.4,0.8-0.6,1c-0.1,0.1-0.5,0.3-0.6,0.3
				c-0.4,0.1-1,0.3-1.2,0.3c-2.2,0.3-4.5-0.2-6.7-0.2c-1.9,0-1.9,3,0,3c2.3,0,4.5,0.4,6.8,0.2c1.2-0.1,2.3-0.4,3.3-1.1
				c1-0.7,1.6-1.9,2.1-3c0.9-2.3,0.8-5.2-1.1-7c-1.9-1.7-4.9-1.5-7.3-1.1c-0.6,0.1-1.2,0.3-1.9,0.3c-0.9,0.1-1.9,0.1-2.8,0.1
				c-0.9,0.1-1.6,0.3-2.4,0.7c-0.6,0.3-1.1,0.6-1.8,0.5c-0.8-0.1-1.5,0.8-1.5,1.5C676.2,1030.6,676.9,1031.1,677.7,1031.2
				L677.7,1031.2z"/>
		</g>
	</g>
	<g>
		<g>
			<path d="M683,1039.6c0.9,0,1.8-0.1,2.8,0c0.8,0.1,1.8,0.2,2.7,0.4c0.1,0,0.2,0.1,0.3,0.1c0.3,0.1-0.1-0.1,0.1,0c0.1,0,0,0,0,0
				c0,0,0.1,0.1,0.2,0.2c0.1,0.1,0,0,0,0c0,0.1,0.1,0.2,0.2,0.2c0.1,0.1,0.2,0.3,0.2,0.4c0.4,0.7,1,1.3,1.5,2
				c0.5,0.7,1.1,1.2,1.8,1.7c0.1,0.1,0.2,0.2,0.4,0.2c0,0,0.2,0.2,0.1,0c-0.1-0.1,0,0.1,0,0.1c0,0,0,0,0,0c0.1,0.1,0.1,0.1,0-0.1
				c0,0,0.1,0.3,0,0c0-0.1,0-0.2,0-0.2c0-0.2,0.1-0.2,0,0c0,0,0.1-0.2,0.1-0.2c0-0.1,0.2,0,0,0c0,0-0.2,0.1-0.2,0.1c0,0,0.2-0.1,0,0
				c-0.5,0.2-0.9,0.4-1.4,0.6c-0.8,0.4-1.5,0.8-2.3,1c-0.9,0.2-1.9,0.2-2.8,0.2c-0.6,0-1.2,0.1-1.8,0.2c-0.5,0.1-1,0.4-1.5,0.5
				c-0.8,0.2-1.3,1.1-1,1.8c0.2,0.8,1,1.2,1.8,1.1c0.5-0.1,0.9-0.3,1.4-0.5c0.5-0.1,1.1-0.1,1.6-0.1c1.1,0,2.2,0,3.2-0.3
				c1.1-0.3,2-0.8,3-1.3c0.9-0.4,1.9-0.7,2.5-1.6c0.6-0.9,0.5-2.1-0.2-3c-0.3-0.4-0.6-0.6-1-0.9c-0.1-0.1-0.3-0.2-0.4-0.3
				c0,0-0.1-0.1-0.2-0.1c-0.1-0.1-0.1,0,0,0c0,0-0.1-0.1-0.1-0.1c-0.3-0.3-0.6-0.7-0.9-1.1c-0.2-0.2-0.3-0.4-0.5-0.6
				c-0.1-0.1-0.1-0.1-0.2-0.2c-0.3-0.3,0.1,0.2-0.1-0.2c-0.4-0.8-0.9-1.6-1.7-2.1c-1.1-0.7-2.4-0.6-3.6-0.8
				c-1.3-0.2-2.5-0.1-3.8-0.1C681.1,1036.6,681.1,1039.6,683,1039.6L683,1039.6z"/>
		</g>
	</g>
	<g>
		<g>
			<path d="M683.5,1049.8c2.5,0,5-0.3,7.4,0.2c0.5,0.1,1,0.2,1.5,0.5c0.5,0.3,0.9,0.6,1.3,0.9c0.3,0.2,1,0.5,1.1,0.7
				c-0.1-0.1,0,0.2,0,0.1c0,0.2,0,0.3,0,0.5c-0.5,2.1-2.8,2-4.6,2c-1.3,0-2.7-0.3-4-0.3c-0.6,0-1.2,0.1-1.8,0.1
				c-0.5,0-1-0.2-1.5-0.2c-1.9-0.1-1.9,2.9,0,3c0.4,0,0.9,0.2,1.3,0.2c0.6,0,1.2,0,1.8-0.1c1.2,0,2.4,0.2,3.6,0.2
				c2.3,0.1,4.7,0.2,6.6-1.5c1.6-1.4,2.5-4.3,1-6.1c-0.6-0.7-1.6-1.1-2.4-1.7c-0.9-0.7-1.9-1.1-3.1-1.4c-2.7-0.6-5.4-0.3-8.1-0.3
				C681.5,1046.8,681.5,1049.8,683.5,1049.8L683.5,1049.8z"/>
		</g>
	</g>
	<g>
		<g>
			<path d="M684.1,1057.3c1,0,2.2-0.2,3.1,0.2c0.4,0.2,0.9,0.8,0.8,0.1c-0.1-0.7,0-0.3-0.4-0.1c-0.2,0.1-0.4,0.3-0.6,0.5
				c-1.8,1.3-3.9,1.3-6.1,1.3c-2.2,0-4.4,0.1-6.5-0.4c-2-0.5-3.8-1.2-5.8-1.6c-2.2-0.4-4.4-1.1-6.6-1.3c-2.2-0.2-4.3-0.4-6.5-0.6
				c-4.6-0.4-9.3,0.3-13.9,0.1c-2.4-0.1-4.7-0.8-7.2-0.8c-2.6,0-5.2,0-7.9,0c-1.9,0-1.9,3,0,3c2.6,0,5.2,0,7.9,0
				c2.6,0,5,0.8,7.6,0.8c2.5,0.1,5-0.2,7.6-0.2c2.8,0,5.5,0,8.2,0.2c2.5,0.2,5,0.4,7.5,1c1.2,0.3,2.5,0.5,3.8,0.8
				c1.1,0.3,2.2,0.7,3.3,1c1.1,0.2,2.2,0.6,3.3,0.7c1.3,0.1,2.5,0,3.8,0.1c2.4,0,5.1,0.3,7.4-0.8c1.7-0.8,4.7-2.6,3.8-4.8
				c-0.4-1-1.5-1.5-2.4-1.9c-1.4-0.6-2.8-0.5-4.2-0.5C682.2,1054.3,682.2,1057.3,684.1,1057.3L684.1,1057.3z"/>
		</g>
	</g>
	<g>
		<g>
			<path d="M625.9,1054.7c-0.5,0-1,0-1.4,0c-0.1,0-0.2,0-0.4,0c0,0-0.1,0-0.2,0c0.1,0,0.1,0,0,0c-0.2-0.1-0.4-0.1-0.6-0.2
				c-0.2-0.1-0.4-0.1-0.7-0.2c-0.1,0-0.2-0.1-0.3-0.1c-0.2-0.1,0.3,0.1-0.1,0c-0.2-0.1-0.4-0.2-0.5-0.3c-0.1-0.1-0.2-0.1-0.3-0.2
				c-0.2-0.1,0,0-0.1-0.1c-0.3-0.3-0.7-0.6-0.9-1c-0.1-0.1-0.1-0.2-0.2-0.2c-0.3-0.4,0.1,0.1-0.1-0.1c-0.2-0.2-0.4-0.5-0.6-0.8
				c-0.2-0.2,0.2,0.3-0.1-0.1c-0.1-0.1-0.1-0.2-0.2-0.2c-0.1-0.1-0.1-0.2-0.2-0.3c-0.1-0.1,0,0.1-0.1-0.1c-0.3-0.6-0.5-1.1-1-1.7
				c-0.5-0.6-1.6-0.6-2.1,0c-0.6,0.7-0.5,1.5,0,2.1c-0.2-0.2,0.1,0.2,0.1,0.2c0,0.1,0.1,0.2,0.1,0.3c0.2,0.4-0.1-0.3,0.1,0.2
				c0.1,0.2,0.2,0.4,0.2,0.6c0.3,0.5,0.7,1,1,1.4c-0.1-0.1,0-0.1,0,0c0.1,0.2,0.3,0.3,0.4,0.5c0.2,0.2,0.3,0.4,0.5,0.6
				c0.4,0.4,0.8,0.8,1.3,1.2c0.8,0.6,1.8,0.9,2.8,1.2c1.1,0.3,2.2,0.3,3.3,0.3c0.8,0,1.5-0.7,1.5-1.5
				C627.4,1055.4,626.8,1054.7,625.9,1054.7L625.9,1054.7z"/>
		</g>
	</g>
	<g>
		<g>
			<path d="M620.2,1044.5c-1.3,0-2.7,0.2-4-0.3c-1.3-0.4-2.5-1.1-3.5-2c-2-1.9-3.9-4.3-5-6.9c-0.5-1.2-1.2-2.5-1.4-3.8
				c-0.2-1.3-0.4-2.8-0.2-4.1c0.1-1.2,0.8-2.2,1.7-3c0.7-0.7,1.8-1.7,2.8-1.7c1.9-0.1,1.9-3.1,0-3c-2.8,0.1-5.8,2.8-6.9,5.3
				c-1.4,3.2-0.5,7.3,0.8,10.3c0.8,1.7,1.4,3.3,2.5,4.8c1,1.4,2.2,2.8,3.4,4.1c1.3,1.3,2.7,2.1,4.3,2.7c1.8,0.7,3.5,0.6,5.4,0.6
				C622.1,1047.5,622.1,1044.5,620.2,1044.5L620.2,1044.5z"/>
		</g>
	</g>
	<g>
		<g>
			<path d="M607.7,1016c-0.9-0.9-1.2-2.7-1.5-3.9c-0.4-1.8-0.5-3.8-0.6-5.7c-0.2-3.9,0-7.8-0.1-11.7c-0.1-7.6-1.6-15.1-2.3-22.7
				c-0.3-3.8-0.6-7.6-0.7-11.3c0-3.7-0.2-7.4-0.2-11c0-7.7-0.1-15.4,0.4-23.1c0.2-4.4,0.6-8.8,0.7-13.1c0.1-1.9,0-3.8,0.4-5.7
				c0.4-2,1.5-3.8,1.9-5.8c0.4-1.9-2.5-2.7-2.9-0.8c-0.4,1.7-1.1,3.3-1.7,5c-0.6,1.7-0.6,3.7-0.7,5.5c-0.1,3.9-0.3,7.9-0.6,11.8
				c-0.6,8.1-0.6,16.2-0.6,24.3c0,3.7,0.3,7.5,0.2,11.2c0,3.9,0.2,7.9,0.5,11.8c0.6,7.9,2.3,15.6,2.4,23.6c0.1,4.4-0.1,8.8,0.2,13.2
				c0.1,2.1,0.3,4.3,0.8,6.4c0.4,1.5,0.9,3.2,2,4.3C607,1019.5,609.1,1017.4,607.7,1016L607.7,1016z"/>
		</g>
	</g>
	<g>
		<g>
			<path d="M568.6,790.7c0.1,4.1,1.1,8.2,2.3,12.1c1.2,3.9,3.2,7.4,5,11.1c1.8,3.9,3.3,7.9,4.9,12c0.7,2,1.5,3.9,2.2,5.9
				c0.7,1.9,1.4,3.7,2.7,5.2c1.2,1.5,3.3-0.7,2.1-2.1c-1.2-1.5-1.8-3.5-2.4-5.3c-0.7-1.9-1.4-3.8-2.1-5.7c-1.4-3.8-2.9-7.5-4.6-11.2
				c-1.6-3.5-3.5-6.7-4.7-10.4c-1.2-3.8-2.3-7.8-2.4-11.8C571.6,788.7,568.6,788.7,568.6,790.7L568.6,790.7z"/>
		</g>
	</g>
	<g>
		<g>
			<path d="M585.5,837.6c0,5.2-0.1,10.2,0.8,15.3s1.7,10.1,2,15.3c0.1,2.5,0.2,5.1,0.1,7.7c0,1.1-0.1,2.2,0.1,3.4
				c0.1,1.2,0.5,2.3,0.5,3.5c0,1.1,0.1,2.2,0.3,3.3c0.2,1.3,0.7,2.5,0.9,3.8c0.1,1.1-0.1,2.3,0.1,3.4c0.1,1.2,0.4,2.4,0.6,3.7
				c0.4,2.2,0.9,4.4,2.5,6.1c0.8,0.9,1.8,1.6,2.6,2.5c0.9,1.1,1.7,2.3,2.4,3.5c1,1.6,3.6,0.1,2.6-1.5c-1.2-1.9-2.4-3.8-4-5.3
				c-0.7-0.6-1.5-1.2-2-2.1c-0.5-0.9-0.7-1.9-0.9-2.9c-0.2-1.1-0.5-2.2-0.6-3.3c-0.2-1.2-0.1-2.4-0.2-3.7c0-2.4-1.1-4.6-1.2-6.9
				c0-2.2-0.7-4.4-0.7-6.6c0-2.5,0.1-4.9,0-7.3c-0.2-5-0.8-9.9-1.7-14.8c-0.5-2.7-1-5.5-1.1-8.3c-0.1-2.9,0-5.9,0-8.8
				C588.5,835.6,585.5,835.6,585.5,837.6L585.5,837.6z"/>
		</g>
	</g>
	<g>
		<g>
			<path d="M583.2,705.3c-0.2,1.8,0.4,3.4,0.9,5.1c0.5,1.7,0.8,3.3,1.1,5c0.5,3.6,0.9,7.3,0.8,11c0,1.9,3,1.9,3,0
				c0-3.7-0.4-7.3-0.8-11c-0.2-1.7-0.5-3.4-1-5.1c-0.5-1.7-1.2-3.3-1-5.1c0.1-0.8-0.8-1.5-1.5-1.5
				C583.8,703.8,583.3,704.5,583.2,705.3L583.2,705.3z"/>
		</g>
	</g>
	<g>
		<g>
			<path d="M600.8,716.6c1.2,1.1,1.3,2.9,1.5,4.5c0.3,2.3,0.7,4.6,0.9,7c0.1,0.8,0.6,1.5,1.5,1.5c0.8,0,1.6-0.7,1.5-1.5
				c-0.3-2.7-0.7-5.3-1-8c-0.3-2-0.6-4.2-2.2-5.7c-0.6-0.5-1.5-0.6-2.1,0C600.2,715,600.2,716,600.8,716.6L600.8,716.6z"/>
		</g>
	</g>
	<g>
		<g>
			<path d="M622.8,702.6c1.8,3.7,1.5,7.8,1.5,11.8c0,1.9,3,1.9,3,0c0-4.5,0.2-9.1-1.9-13.3c-0.4-0.7-1.4-0.9-2-0.5
				C622.6,701,622.4,701.9,622.8,702.6L622.8,702.6z"/>
		</g>
	</g>
	<g>
		<g>
			<path d="M607.2,750.7c0.1,0.3,0.1,0.7,0.2,1c0.1,0.5,0-0.3,0,0.2c0,0.2,0,0.3,0,0.4c0.1,0.7,0.1,1.3,0.2,2c0.1,1.3,0.1,2.6,0.1,4
				c0,0.8,0.7,1.5,1.5,1.5s1.5-0.7,1.5-1.5c0-2.8-0.1-5.6-0.6-8.4c-0.1-0.8-1.1-1.3-1.8-1C607.5,749.1,607.1,749.9,607.2,750.7
				L607.2,750.7z"/>
		</g>
	</g>
	<g>
		<g>
			<path d="M590.1,754.9c-0.2,1.9,0.9,3.6,1.2,5.4c0.2,2,0,4,0,6c0,1.9,3,1.9,3,0c0-2,0.2-4,0-6c-0.1-1-0.3-1.9-0.7-2.9
				c-0.3-0.9-0.6-1.6-0.5-2.5c0.1-0.8-0.7-1.5-1.5-1.5C590.7,753.4,590.1,754.1,590.1,754.9L590.1,754.9z"/>
		</g>
	</g>
	<g>
		<g>
			<path d="M620.3,771.8c1.2,3.3,1.1,6.8,1.1,10.3c0,3.8,0,7.7,0,11.5c0,1.9,3,1.9,3,0c0-4,0-8,0-11.9c0-3.6,0.1-7.2-1.2-10.7
				C622.6,769.2,619.7,770,620.3,771.8L620.3,771.8z"/>
		</g>
	</g>
	<g>
		<g>
			<path d="M600.3,800.5c0,6.8-0.8,13.5-2.2,20.1c-0.4,1.9,2.5,2.7,2.9,0.8c1.5-6.9,2.3-13.9,2.3-20.9
				C603.3,798.6,600.3,798.6,600.3,800.5L600.3,800.5z"/>
		</g>
	</g>
	<g>
		<g>
			<path d="M603.2,860.8c0.3,2,1,3.9,1.2,5.9c0.2,2.1,0.5,4.2,0.5,6.3c0,1.9,3,1.9,3,0c0-2.2-0.3-4.3-0.5-6.5
				c-0.2-2.2-0.9-4.3-1.2-6.4c-0.1-0.8-1.1-1.2-1.8-1C603.4,859.2,603.1,860,603.2,860.8L603.2,860.8z"/>
		</g>
	</g>
	<g>
		<g>
			<path d="M609.3,827.2c0.3,0.2,0.5,0.5,0.8,0.8c0.2,0.2-0.2-0.3,0,0c0,0.1,0.1,0.1,0.1,0.2c0.1,0.2,0.2,0.3,0.3,0.5
				c0.1,0.2,0.2,0.3,0.3,0.5c0,0.1,0.1,0.2,0.1,0.3c-0.1-0.2,0-0.1,0,0.1c0.2,0.4,0.3,0.8,0.4,1.2c0.1,0.4,0.2,0.8,0.2,1.2
				c0,0.1,0,0.2,0,0.3c0,0.2,0-0.2,0,0c0,0.2,0,0.4,0.1,0.6c0.1,0.8,0.1,1.6,0,2.4c-0.1,0.8,0.7,1.5,1.5,1.5c0.9,0,1.4-0.7,1.5-1.5
				c0.3-3.5-0.5-7.8-3.3-10.2c-0.6-0.5-1.5-0.6-2.1,0C608.8,825.7,608.7,826.7,609.3,827.2L609.3,827.2z"/>
		</g>
	</g>
	<g>
		<g>
			<path d="M623.6,867.7c0.1,0.1,0.2,0.2,0.2,0.2c0,0,0.2,0.3,0.1,0.1c0.1,0.2,0.2,0.3,0.3,0.5c0.1,0.2,0.2,0.3,0.3,0.5
				c-0.1-0.3,0.1,0.2,0.1,0.3c0.1,0.4,0.2,0.8,0.3,1.3c0,0.3,0-0.1,0,0.1c0,0.1,0,0.2,0,0.3c0,0.2,0,0.5,0,0.7
				c0.1,1.7-0.1,3.5-0.1,5.2c0,0.8,0.7,1.5,1.5,1.5c0.8,0,1.5-0.7,1.5-1.5c0-3.8,0.8-8.3-2.2-11.3
				C624.3,864.2,622.2,866.3,623.6,867.7L623.6,867.7z"/>
		</g>
	</g>
	<g>
		<g>
			<path d="M616.9,919.1c0,2.3,0.6,4.6,0.6,6.9c0.1,2.4,0,4.9,0,7.3c0,1.9,3,1.9,3,0c0-2.4,0.1-4.9,0-7.3c-0.1-2.3-0.6-4.6-0.6-6.9
				C619.9,917.2,616.9,917.2,616.9,919.1L616.9,919.1z"/>
		</g>
	</g>
	<g>
		<g>
			<path d="M618,968.7c0,1.5,0,3,0,4.6c0,0.8,0.7,1.5,1.5,1.5s1.5-0.7,1.5-1.5c0-1.5,0-3,0-4.6c0-0.8-0.7-1.5-1.5-1.5
				S618,967.9,618,968.7L618,968.7z"/>
		</g>
	</g>
	<g>
		<g>
			<path d="M629.8,966.2C630,966.2,630,966.3,629.8,966.2c0.1-0.1-0.4-0.2-0.1-0.1c-0.2-0.1-0.1-0.2-0.2-0.1c-0.1,0.1,0-0.2,0,0.1
				c0-0.1-0.1-0.3,0-0.1c0,0.1,0,0.2,0.1,0.3c0,0.1,0,0.2,0.1,0.3c0.1,0.3,0-0.1,0,0c0.1,0.8,0,1.6,0.1,2.4c0,1.2,0.3,2.5,0.3,3.7
				c0,1.7,0,3.4,0,5c0,1.9,3,1.9,3,0c0-1.9,0.1-3.8,0-5.7c0-1-0.2-2-0.3-3c0,0.4,0,0.2,0-0.1c0-0.2,0-0.4,0-0.7
				c0-1.9-0.1-5.4-2.9-5.2c-0.8,0.1-1.5,0.6-1.5,1.5C628.3,965.5,629,966.3,629.8,966.2L629.8,966.2z"/>
		</g>
	</g>
	<g>
		<g>
			<path d="M628.3,936.8c0,0.9,0.4,1.6,0.5,2.5s0,1.8,0,2.7c0,2.1,0,4.1,0,6.2c0,1.9,3,1.9,3,0c0-2.1,0-4.1,0-6.2
				c0-1,0.1-2.1-0.1-3.1c-0.1-0.4-0.2-0.9-0.3-1.3c0-0.1-0.1-0.3-0.2-0.4c0-0.2,0-0.2,0,0c0-0.1,0-0.2,0-0.4c0-0.8-0.7-1.5-1.5-1.5
				C628.9,935.3,628.3,936,628.3,936.8L628.3,936.8z"/>
		</g>
	</g>
	<g>
		<g>
			<path d="M632.3,911.7c0,0.4,0.1,0.9,0.2,1.3c0.1,0.4,0.3,0.8,0.5,1.2c0.2,0.3,0.5,0.6,0.9,0.7c0.2,0.1,0.4,0.1,0.6,0
				c0.2,0,0.4-0.1,0.6-0.2c0.3-0.2,0.6-0.5,0.7-0.9c0-0.1,0-0.3,0-0.4c0-0.3-0.1-0.5-0.2-0.8c-0.1-0.2-0.2-0.4-0.3-0.6
				c0,0.1,0.1,0.2,0.2,0.4c-0.1-0.3-0.2-0.6-0.2-0.9c0,0.1,0,0.3,0,0.4c0-0.1,0-0.2,0-0.3c0-0.2,0-0.4-0.1-0.6
				c-0.1-0.2-0.2-0.3-0.3-0.5c-0.1-0.2-0.3-0.2-0.5-0.3c-0.2-0.1-0.4-0.1-0.6-0.1c-0.4,0-0.8,0.1-1.1,0.4
				C632.5,910.9,632.2,911.3,632.3,911.7L632.3,911.7z"/>
		</g>
	</g>
	<g>
		<g>
			<path d="M611.6,947.7c-2,2.1-2.2,5.2-2.2,7.9c0,0.8,0.7,1.5,1.5,1.5c0.8,0,1.5-0.7,1.5-1.5c0-0.6,0-1.1,0-1.7
				c0-0.3,0-0.6,0.1-0.9c0-0.1,0-0.1,0-0.2c0,0,0-0.3,0-0.1c0,0.2,0,0,0,0c0-0.1,0-0.2,0-0.2c0.1-0.6,0.3-1.1,0.5-1.7
				c0.1-0.2-0.1,0.3,0,0c0-0.1,0-0.1,0.1-0.2c0.1-0.1,0.1-0.2,0.2-0.4c0.1-0.1,0.2-0.2,0.2-0.3c0,0.1-0.2,0.2-0.1,0.1
				c0.1-0.1,0.1-0.1,0.2-0.2c0.5-0.6,0.6-1.6,0-2.1C613.2,947.2,612.2,947.1,611.6,947.7L611.6,947.7z"/>
		</g>
	</g>
	<g>
		<g>
			<path d="M617.5,994c-1,2.5-0.6,5.3-0.6,8c0,2.8,0,5.6,0,8.4c0,1.9,3,1.9,3,0c0-2.7,0-5.4,0-8.1c0-2.5-0.4-5.1,0.5-7.5
				c0.3-0.8-0.3-1.7-1-1.8C618.5,992.7,617.8,993.2,617.5,994L617.5,994z"/>
		</g>
	</g>
	<path class="st1" d="M712.8,370.3c-1.5-8.6-5.3-16.4-11-22.4c-5.2-10.2-11.1-19.5-19.2-29c-1.9-2.3-4.3-4.2-6.9-5.9
		c-1.1-1.4-2.2-2.7-3.3-4.1c-1.7-2.1-4-4-6.6-5.6c-1.7-3.4-3.9-6.5-6.8-9.2c-3.7-3.9-8-6.7-13-8.4c-0.1,0-0.2-0.1-0.2-0.1
		c-1.7-4.7-5.7-8.4-12.1-8.4c-5.3,0-9,2.5-11.1,6l-2.9,0.4c-0.1,0-0.2,0.1-0.3,0.1c-1-0.1-1.9-0.1-2.9-0.1c-7.8,0-15.5,2.5-22,6.8
		c-0.8,0.2-1.5,0.5-2.2,0.8c-7.4,3.1-15,5.4-22.9,6.9c-6.4,0.5-12.8,0.5-19.3-0.1c-9.8-0.9-21.9,5.1-28.6,11.8
		c-7,7-12.3,18.5-11.8,28.6c0.5,10.5,3.9,21.3,11.8,28.6c8.3,7.6,17.4,10.9,28.6,11.8c21.3,1.9,43.9-1.4,63.7-9.7c1-0.4,2-0.9,3-1.3
		c4.6,5.7,9.1,11.3,13.7,17c0.1,0.1,0.2,0.2,0.2,0.2c1,1.9,1.9,3.8,2.7,5.8c-0.2-0.5-0.5-1.1-0.7-1.6c3.6,8.2,7.5,15.2,13.9,22.7
		c6.4,7.5,19.1,11.8,28.6,11.8c9.9,0,21.8-4.4,28.6-11.8C715.2,399.6,717.8,384.3,712.8,370.3z"/>
	<path class="st0" d="M559.2,297.2c3.3,0,6.5-0.2,9.7-0.4c0.2,0,0.3,0,0.4,0c0.5-0.1,1.1-0.2,1.9-0.3c2.8-0.4,5.6-0.8,8.4-1.2
		c1.6-0.2,3.2-0.5,4.8-0.7c2.2-1.5,4.4-2.9,6.9-4.1c6.6-3,13.3-4.7,20-7.2c3.8-1.4,7.6-1.8,11.3-1.5c0.2-0.6,0.3-1.2,0.5-1.8
		c8.7-3.1,16.4-9.1,21.7-17.8c0.5-0.8,0.9-1.6,1.3-2.4c7.5-7.6,12.2-17.7,11.7-28.7c-0.1-1.7-0.3-3.4-0.5-5.1c0.1-1.5,0.2-3,0.1-4.6
		c-0.4-8.3-3-16.1-7.2-22.6c-0.2-0.5-0.3-1-0.5-1.5c-0.1-1.6-0.1-3.2-0.2-4.8c-0.1-3.7-0.7-7.3-1.8-10.8c3.5-3.9,5.6-9,5.4-14.4
		c-0.2-5.6-2.4-10.8-5.8-14.8c6.2-7.2,9.9-16.4,9.5-26.2c-0.1-2.4-0.4-4.8-0.9-7.2c0.7-3.1,1-6.3,0.9-9.5
		c-0.6-12.4-6.1-23.8-14.8-31.5c-4.6-11.9-14-21.4-26.1-25.3c-6.8-12.6-19.4-21.5-34.8-22c-7-6-16.1-9.7-26.3-9.7
		c-3.1,0-6.2,0.4-9.3,1.2c-2.1-0.3-4.3-0.5-6.5-0.5c-9.6,0-19,3.7-26.5,9.8c-9.5,3.2-17.9,9.8-23.2,18.2
		c-9.5,5.9-16.8,15.3-19.2,26.2c-5.7,7-9.1,15.8-8.7,25.4c0.4,8.7,3.3,17,8,23.9c-1.6,7.6-2.5,14.8-2.6,22c-1.1-0.1-2.2-0.1-3.3-0.1
		c-12.3,0-24.3,6.1-32.3,15.5c-20.9,1.3-40.3,19.9-39.4,41.6c0.9,19.4,13.7,36.2,32.1,40.6c4.1,6.2,8,12.4,12.9,18.2
		c9.6,11.5,23,18.7,37.2,23.2c12.3,3.9,25.1,6.8,37.9,9.2c5.8,6.5,13.6,11.2,22.8,13.3C540.8,301.7,549.9,297.2,559.2,297.2z"/>
	<path class="st0" d="M773.7,166.5c-0.1-1.7-0.6-3.4-1.3-4.8c1.9-4.2,1.2-9.6-2-12.9c0.9-3-0.7-6.8-4.7-6.8c-2.4,0-3.9,1.4-4.6,3.1
		c-0.4-0.2-0.8-0.3-1.2-0.5c-0.6-1.8-2.2-3.3-4.7-3.3c-0.7,0-1.2,0.1-1.8,0.3c-0.3-0.1-0.7-0.1-1-0.1c-4,0-5.6,3.7-4.7,6.7
		c-0.6,0.8-1.1,1.6-1.4,2.6c-0.3,0.6-0.5,1.1-0.7,1.8c-0.7-1.1-1.7-2-2.8-2.8c0-2.6-1.6-5.2-5-5.2c-3,0-4.6,2.1-4.9,4.3
		c-3.4,1.3-5.5,4.3-6.2,7.6c-0.8-0.2-1.7-0.4-2.5-0.6l0,0c1-10.9,2.1-21.8,3.1-32.7c0.8-9,2.4-18.8,0.6-27.8
		c-1.1-5.1-5.5-14.1-12.2-9.9c-2.2,1.4-2.7,3.6-3.1,6c-0.8,5.4-0.6,11.3-0.8,16.8c-0.2,0.4-0.4,0.9-0.5,1.5
		c-3.5,17.8-5,35.8-4.3,53.9c0,0.3,0.1,0.6,0.1,0.9c-0.4-0.5-0.9-1-1.4-1.4c-0.1-0.1-0.3-0.4-0.6-0.6c-0.2-0.5-0.3-1-0.4-1.2
		c-1-4.2-5-7.4-9.3-8c-0.2-2.4-1.9-4.5-4.9-4.5c-1.3,0-2.4,0.4-3.2,1.1c-0.5-0.1-1-0.2-1.5-0.2c-3.6,0-5.2,3.1-4.9,5.9
		c-1.8,2.6-1,6.9,2.4,8c-0.1,1.2,0,2.4,0.3,3.6c0.9,3.6,2.3,6.9,4.8,9.6c0.6,0.7,1.4,1.4,2.1,2c-0.2,0,0.8,1.4,1,1.7
		c2.9,5.8,7.7,10.4,14.3,11.7c0.1,0,0.1,0,0.2,0c0.5,1.6,1.4,3.1,2.6,4.3c5.7,5.5,11.9,13.2,19.4,16.8c0.1,9.6,1.1,19,2.9,28.4
		c1.1,5.8,8.1,9.1,13.4,7.6c2.1-0.6,3.7-1.6,5-3c1.1,0.4,2.3,0.6,3.7,0.6c10.7,0,13.3-12.8,7.6-18.8c0-0.4,0-0.9,0-1.3
		c-0.1-1.4-0.2-2.8-0.3-4.2c3.2-4.2,2.9-10.9-0.7-14.8c1.2-2.9,1.3-6.2,0.2-9.1c2.5-0.6,4.7-2.2,6.4-5c2.3-4.1,4-8.7,5.1-13.3
		C772.4,176.2,774.1,171,773.7,166.5z"/>
	<path class="st1" d="M824,423.5c1.1-3.7,1.4-7.9,0.7-12.2c0.3,2.2,0.1-0.7,0-1.4c0-1.6-0.1-3.1-0.1-4.7c0-3.5,0-7-0.3-10.5
		c-0.8-9.4-3.7-16.2-7.1-24.9c0.8,2-0.2-1-0.4-1.4c-0.5-1.5-0.9-3-1.4-4.5c-0.9-3.2-1.8-6.3-2.8-9.5c-2.1-7.1-4.1-14.2-6.2-21.3
		c-0.7-2.4-1.9-4.7-3.4-6.7c0.2-1.4,0.4-2.8,0.3-4.3c-0.2-4.8-2.2-10-5.5-14c-1.2-9.1-2.9-18-5.2-26.8c-0.8-3.2-2.5-6.1-4.8-8.5
		c-0.9-3.4-2.6-6.5-4.8-9.1c-0.9-11.4-9.5-19.7-21.1-20.2c-6-0.3-12.7-0.1-18.3,1.8c-2.2,0.8-4.3,1.8-6.2,3
		c-2.6-1.1-5.8-1.4-8.4-0.6c-1,0.3-2,0.8-2.9,1.3c-0.1,0-0.2,0-0.2,0c-6.9,0-9,7.4-6.3,11.9c0,0.9,0.2,1.8,0.6,2.6
		c1.9,4.6,3.7,9.5,7.3,13c0,0.1,0,0.2,0,0.3c0,0.4,0.1,0.7,0.1,1.1c-0.1,0.9-0.1,1.7-0.1,2.6c0.2,5.2,2.2,10,5.3,13.8
		c0.1,1.3,0.3,2.7,0.7,4c1,3.5,1.7,7,2.6,10.4c0.4,5.7,0.7,11,3.7,16.3c0.6,1,1.2,1.9,2,2.8c0.2,2,0.4,3.9,0.7,5.9
		c0.7,4,2,7.8,3.5,11.5c-0.6,3.5-0.3,7.1,0.9,10.6c0,0,0,0.1,0,0.1c0.1,1.9,0.4,3.7,0.9,5.4c0,0.9,0,1.8-0.1,2.6
		c-0.2,4.7-0.4,9.3-0.5,14c0,0.1,0,0.1,0,0.2c-1.4,1.1-2.7,2.3-3.8,3.6c-0.4,0-0.8,0-1.2,0c-0.5,0-1,0-1.5,0
		c-1.7-5.5-5.3-10.1-10.2-12.8c-1.8-6.2-6.1-11.3-11.9-13.9c-1.9-3.4-4.7-6.2-8-8.1c-2.3-6.4-7.4-11.5-14-13.4
		c-3.2-7.8-10.4-13.5-19.5-13.5c-10.6,0-20.7,8.9-21.2,19.6c-2.2-0.4-4.4-0.8-6.7-1.1c-11.8-1.7-23.7-3.4-35.5-4.5
		c-10.2-1-20.3-1-30.3-0.4c-2.8-14.6-12.9-27.5-28.5-31.4c-15.1-3.8-30.6-6.3-46.1-7.9c-2.5-2.9-6.3-4.7-10.4-5
		c-4.3-0.3-9.7-6.5-13.5-8.5c-5.5-3-11.5-4.5-16.5-8.4c-11-8.6-17.3-22.2-25.1-33.4c-1.1-1.6-2.5-3-4-4
		c-3.1-10.4-5.2-24.2-13.3-31.9c-0.8-3.4-1.7-6.7-2.8-10c0-2.4,0-4.9,0.1-7.3c0.2-2.7-1-5.7-2.7-8c-0.1-1.8-0.2-3.5-0.6-5.3
		c-2.5-11.1-14.6-11.8-21.5-6.2c-3.5-1.9-8-2.3-12.5,0.3c-1.2,0.6-2.4,1.1-3.6,1.4c-1.1,1.6-2.4,3.2-3.8,4.5
		c-3.2,3.1-6.4,6.2-9.4,9.6c-1.5,1.7-3,3.4-4.5,5.2c-0.1,0.2-0.4,0.5-0.8,0.9c0.4-0.3-2.9,3.7-3.3,4.4c-1.1,1.6-2.2,3.1-3.2,4.7
		c-2.5,3.7-4.8,7.6-7,11.5c-2.6,4.6-6.2,8.2-10.4,10.8c-0.1,2.1-0.4,4.2-0.9,6.2c-8.8,36.1-27.1,69.3-33.4,106.1
		c-1.2,7.2-5.4,12.9-11,16.8c-0.5,3.5-0.8,7-0.6,10.5c0.2,4.2,0.7,8.5,1.4,12.7c-0.6,2.8-1,5.5-1.3,8.3c-3.1,7.8-5,16-5,23.8
		c-2,4.7-3,9.8-2.8,15c-4.1,5.6-6.7,12.3-7.1,19.4c-2,4.4-3.1,9.1-3.2,14c-4.2,6.2-6.7,13.7-6.6,22c0.2,16.7-0.2,33.4-1.1,50.1
		c-2,4.7-3,9.9-2.8,15.2c0.1,2.8,0.5,5.5,1.1,8.1c-0.2,2.3-0.4,4.7-0.6,7c-0.2,2.2,0,4.6,0.4,7c0.1,2.5,0.4,5.1,0.8,7.8
		c1.7,11,3.1,22.1,6,32.8c1.9,7,6,13.4,11.3,18.4c0.4,0.9,0.9,1.8,1.3,2.7c1.2,3.3,2.7,6.5,4.1,9.6c0.9,2,1.9,4,3.1,5.8
		c2.8,4.2,5.9,8.3,9.4,11.9c0.1,0.1,0.2,0.2,0.4,0.3c1,1.5,2.3,2.9,3.7,4.2c3.1,4.1,7,7.8,11.8,10.6c7.2,4.3,13.7,9.7,20.7,14.3
		c9,6,19,10.3,29.1,14.2c17.5,6.8,37.2,9.7,55.9,8.8c1,0,2-0.2,3.1-0.3c4.2,1.7,8.7,2.6,13.6,2.5c0.1,0,0.3,0.1,0.4,0.2
		c4.3,1.9,8.6,3.8,13.2,4.8c5,1.2,10.1,1.6,15.3,2c2.7,0.7,5.5,1.1,8.2,1.2c3,0.7,6,1.1,9.2,1.1c2.4,0,4.7-0.2,7-0.7
		c5.2,1.5,10.7,2.1,16.4,1.4c4.9,1.4,9.7,3.1,14.6,4.3c9.7,2.3,19.8,3.7,29.8,4.1c15,0.7,30.7-1.3,45.3-5.7c4.5-0.6,9-2,13.2-4.5
		c6.6-1.8,12.8-5.2,17.8-9.8c2.4-1.1,4.6-2.5,6.8-4c1.9-1.2,3.7-2.4,5.5-3.6c4.2,0.3,8.4-0.2,12.2-1.7c20.8-8.2,38.9-20.1,52.8-36.8
		c6.6-3.4,12.7-8.3,15.9-14.9c1.4-1.1,2.8-2.2,4.2-3.2c5-5,8.5-11,10.4-17.8c2.6-6.2,3.5-13.5,3-20.2c0-0.4-0.1-0.9-0.1-1.3
		c2.5-7.2,3-15.3,0.9-23.5c-0.4-1.7-0.8-3.3-1.2-5c0-0.3,0-0.6,0-0.9c-0.7-9.2-0.8-18.9-2.7-27.9c-0.3-1.2-0.6-2.4-0.9-3.5
		c0-2.1-0.2-4.3-0.5-6.4c-0.1-0.1-0.2-0.2-0.2-0.2c0.3-1.3,0.4-2.8,0.3-4.2c-0.1-3.2-1-6.3-2.3-9c0.3-1.4,0.4-2.9,0.4-4.4
		c-0.2-4.1-1.5-8-3.6-11.4c-0.6-3.7-2.1-7-4.3-9.9c0.1-1,0.2-2.1,0.1-3.1c-0.2-4-1.4-7.7-3.3-10.9c0,0,0,0,0,0c3.1,1.9,6.8,3,10.8,3
		c0.1,0,0.2,0,0.3,0c3.2,2,7,3.3,10.8,3c0.9-0.1,1.8-0.1,2.7-0.2c3.2,2.1,6.9,3.3,11,2.8c5-0.6,10-0.9,14.9-1c1,0.2,2.1,0.4,3.2,0.6
		c5.7,0.7,11.3,1,16.9,1c1.8,0.5,3.7,0.8,5.7,0.8c5.9,0,11.6-2.7,15.6-7c4.2-3.9,6.9-9.3,6.7-15.2c-0.1-1.3-0.2-2.5-0.5-3.7
		c1.3-1.9,2.2-4,2.6-6.4C827.3,445.7,826.2,435,824,423.5z"/>
	<g>
		<g>
			<path d="M688,323.8c0.6,0,1.3,1.4,1.7,1.8c0.7,0.8,1.4,1.6,2.2,2.3c1.7,1.6,3.3,3.1,4.9,4.8c1.5,1.6,3,3.3,4.7,4.7
				c1.7,1.4,3,2.9,4.6,4.3c0.7,0.6,1.4,1.2,2,1.9c0.6,0.8,1.1,1.6,1.7,2.3c1.3,1.5,3,2.8,4.3,4.4c2.8,3.4,5.6,6.9,8.7,10
				c3.2,3.2,6,6.8,8.7,10.5c1.3,1.9,2.6,3.6,4.2,5.2c1.5,1.6,2.9,3.1,4.1,4.9c1.2,1.8,2.7,3.1,4,4.8c0.6,0.8,1.1,1.6,1.7,2.4
				c0.7,0.9,1.4,1.7,2.1,2.6c1.2,1.7,2.6,3.2,3.8,4.9c1.1,1.7,2.1,3.5,3.5,5.1c0.8,0.9,1.7,1.5,2.6,2.1c1,0.6,1.8,1.4,2.4,2.4
				c0.6,0.9,1.1,1.7,1.8,2.5c0.7,0.8,1.6,1.3,2.3,2.1c3.1,3.1,4.8,7.3,8,10.3c1.4,1.3,3.5-0.8,2.1-2.1c-2.9-2.8-4.6-6.5-7.2-9.5
				c-1.2-1.3-2.8-2.3-3.8-3.8c-1.2-1.8-2.3-3.3-4.1-4.5c-1.9-1.2-3-2.9-4.1-4.7c-1.1-1.8-2.2-3.4-3.6-5s-2.7-3.4-3.9-5.1
				c-1.2-1.8-2.9-3.2-4.2-5c-1.2-1.7-2.3-3.4-3.8-4.9c-1.5-1.6-3.2-3.2-4.5-5.1c-2.6-3.8-5.5-7.5-8.7-10.9c-3.1-3.3-6.2-6.6-9-10.2
				c-1.4-1.7-2.8-3.2-4.4-4.8c-1.4-1.3-2.3-3.1-3.7-4.4c-1.7-1.5-3.3-3.3-5.1-4.7c-2-1.5-3.6-3.5-5.3-5.3c-1.8-1.9-3.8-3.6-5.7-5.5
				c-1.5-1.5-2.6-3.8-4.9-4C686,320.6,686,323.6,688,323.8L688,323.8z"/>
		</g>
	</g>
	<g>
		<g>
			<path d="M725.8,482.9c0.8,0.4,1.6,0.5,2.5,0.8c0.9,0.4,1.9,0.1,2.8,0.5c0.4,0.2,0.8,0.4,1.2,0.5c0.2,0.1,0.5,0.1,0.7,0.1
				c0.6,0-0.2-0.1,0.2,0c0.5,0.1,0.9,0.4,1.4,0.4c0.6,0.1,1.2,0.1,1.7,0.2c0.5,0.1,1,0.4,1.6,0.5c0.6,0.1,1.2,0.1,1.7,0.3
				c1.2,0.3,2.3,0.9,3.4,1.3c2.4,0.8,5.1,1.2,7.6,1.7c2.5,0.5,5,0.8,7.6,0.9c2.5,0,5-0.2,7.6-0.1c5,0.1,9.8,1.3,14.8,1.5
				c5.1,0.3,10.2-0.2,15.3-0.3c2.5,0,4.9-0.5,7.3-1c1.2-0.2,2.5-0.6,3.8-0.6c1.3,0,2.5-0.1,3.7-0.4c4.1-1,8.3-2.3,10.5-6.2
				c1-1.7,1.5-3.7,2-5.6c0.6-2.4,1.1-4.9,1.5-7.4c0.8-5.2,1.1-10.5,2-15.7c0.5-2.6,0.9-5.2,1.2-7.8c0.2-2.6,0-5.2-0.1-7.8
				c-0.3-5.3-0.4-10.7-0.6-16c-0.2-5.4-0.5-10.6-1.2-15.9c-0.7-5.2-1.2-10.3-2.1-15.5c-0.9-5.2-1.3-10.4-2.6-15.5
				c-1.3-5.1-2.9-10-4.1-15.1c-1.2-5-2.6-9.9-4.3-14.8c-1.7-5-3.5-9.9-5-15c-1.5-5.1-3-10.1-4.6-15.2c-3.2-10.2-6-20.5-8.6-30.9
				c-0.6-2.6-1.3-5.1-1.9-7.7c-0.5-1.9-3.3-1.1-2.9,0.8c2.5,10.1,4.8,20.4,7.9,30.3c1.5,4.9,3.1,9.8,4.6,14.7
				c1.5,4.9,2.8,9.8,4.4,14.7c1.5,4.8,3.4,9.5,4.9,14.3c1.5,4.8,2.5,9.7,3.8,14.5c1.3,5,3.1,9.9,3.9,15c0.4,2.5,0.7,5,1,7.5
				c0.4,2.5,0.9,5,1.3,7.6c0.4,2.6,0.6,5.1,0.9,7.7c0.3,2.5,0.7,5.1,1,7.6c0.5,5.1,0.5,10.3,0.7,15.4c0.2,5.1,0.5,10.3,0.7,15.4
				c0.2,5.1-1.2,10.1-1.8,15.2c-0.6,5.1-1,10.2-2,15.3c-0.7,3.5-1.4,8.4-4.6,10.7c-1.8,1.3-4.1,1.8-6.2,2.4
				c-1.1,0.3-2.1,0.4-3.3,0.4c-1.3,0-2.6,0.3-3.8,0.6c-2.4,0.5-4.7,1-7.2,1c-2.5,0-4.9,0.1-7.3,0.2c-2.5,0.1-5,0.2-7.5,0.1
				c-2.4-0.1-4.7-0.4-7-0.8c-2.4-0.4-4.8-0.7-7.2-0.7c-2.5-0.1-4.9,0.1-7.3,0.1c-5,0-10.1-1-14.9-2.3c-1.1-0.3-2.2-0.8-3.2-1.2
				c-1.1-0.4-2.3-0.4-3.4-0.8c-1-0.4-2.1-0.3-3.1-0.6c-0.4-0.1-0.8-0.4-1.3-0.4c-0.5,0-0.7-0.1-1.1-0.3c-0.5-0.2-0.9-0.4-1.4-0.5
				s-1,0-1.4,0c-0.3,0-0.6-0.3-0.9-0.4c-0.5-0.2-1-0.1-1.4-0.3C725.5,479.5,724,482.1,725.8,482.9L725.8,482.9z"/>
		</g>
	</g>
	<g>
		<g>
			<path d="M745.5,380.9c1.3-0.6,1.9-2,2.1-3.3c0.2-1.8,0.3-3.6,0.2-5.3c-0.1-4.5-0.4-9.1-0.7-13.6c-0.6-9.2-2.4-18.2-4.1-27.2
				c-3.4-18-9.2-35.3-14.9-52.7c-1.6-4.8-3.2-9.6-5.1-14.3c-0.9-2.2-1.8-4.3-2.4-6.6c-0.5-1.8-0.7-3.6-2.1-4.9
				c-1.4-1.3-3.5,0.8-2.1,2.1c1,1,1.1,2.7,1.5,4c0.6,2,1.4,3.9,2.1,5.8c1.6,4,3,8,4.3,12c2.7,8.2,5.3,16.4,7.9,24.6
				c2.6,8.3,5,16.7,6.8,25.2c0.9,4.3,1.7,8.7,2.5,13c0.8,4.4,1.7,8.7,2.1,13.1c0.5,4.8,0.6,9.6,0.9,14.4c0.1,2.4,0.4,4.9,0.2,7.3
				c0,0.9,0.2,3.3-0.8,3.8c-0.8,0.3-0.9,1.4-0.5,2C743.9,381.1,744.8,381.2,745.5,380.9L745.5,380.9z"/>
		</g>
	</g>
	<g>
		<g>
			<path d="M794.1,275.8c-1-1-2.2-1.6-3-2.8c-0.9-1.3-1.6-2.8-2.3-4.2c-1.3-2.8-1.8-5.9-3.5-8.5c-3.4-5.5-7-10.7-11.7-15.2
				c-4.3-4.1-11-3.4-16.5-3.2c-1.6,0.1-3.2,0.1-4.7,0.5c-1.6,0.4-3.2,0.9-4.8,1.2c-1.4,0.3-2.8,0.4-4.2,0.6
				c-1.6,0.1-3.1,1.1-4.7,1.5c-1.8,0.4-3.7,0.7-5.5,1.1c-2,0.4-3.9,1.1-5.9,1.4c-1.9,0.3-3.7,0.7-5.5,1.2c-2,0.5-4,0.6-5.9,1
				c-1.9,0.4-1.1,3.3,0.8,2.9c1.7-0.4,3.3-0.5,5-0.8c1.7-0.3,3.3-0.8,5-1.1c3.2-0.5,6.4-1.5,9.6-2.1c1.5-0.3,3.1-0.6,4.5-1
				c0.7-0.2,1.3-0.6,2-0.8c0.8-0.3,1.5-0.2,2.3-0.3c3.1-0.3,5.9-1.4,8.9-2c1.6-0.3,3.4-0.2,5-0.2c1.7,0,3.4-0.2,5-0.1
				c2.2,0.1,5.1,0.4,6.9,2c4.7,4.1,8,9.3,11.4,14.5c1.8,2.9,2.5,6.2,4,9.3c0.7,1.4,1.4,2.9,2.3,4.2c1,1.4,2.2,2.1,3.4,3.3
				C793.3,279.3,795.5,277.2,794.1,275.8L794.1,275.8z"/>
		</g>
	</g>
	<g>
		<g>
			<g>
				<path d="M733.6,248.1c0.6-1.7,0.1-3.5-0.3-5.1c-0.6-2.2-1-4.4-1.4-6.7c-0.4-2.4-0.7-4.8-1-7.1c-0.3-2.3-0.9-4.5-1.3-6.7
					c-0.7-4.1-1.3-8.2-2.8-12.1c-0.7-1.9-2-2.6-3.8-3.3c-0.9-0.4-1.8-0.8-2.6-1.3c-0.9-0.6-1.9-1-2.8-1.7c-0.8-0.6-1.4-1.5-2.1-2.2
					c-0.8-0.9-1.7-1.7-2.4-2.6c-0.8-1-1.5-2.1-2.1-3.2c-0.6-1.1-1.4-2-2-3.1c-1-1.6-3.6-0.1-2.6,1.5c0.5,0.9,1.2,1.6,1.7,2.5
					c0.5,0.9,1,1.8,1.6,2.6c1.2,1.7,2.6,3.1,4,4.6c0.6,0.7,1.2,1.4,1.9,2c0.7,0.6,1.5,1,2.4,1.5s1.5,1.1,2.4,1.5
					c0.9,0.4,1.9,0.7,2.8,1.2c1.3,0.7,1.6,2.8,2,4.1c0.7,2,1,4.2,1.4,6.2c0.8,4.4,1.6,8.7,2.2,13.1c0.3,2.5,0.7,5.1,1.3,7.5
					c0.4,1.8,1.7,4.2,1,6C730,249.1,732.9,249.9,733.6,248.1L733.6,248.1z"/>
			</g>
		</g>
		<g>
			<g>
				<path d="M706.2,191.8c-0.8,0.4-2.2,0-3-0.1c-1.1-0.2-2.8-0.7-3.7-1.5c-0.8-0.7-1.8-1.5-2.4-2.4c-0.8-1.1-1.8-2-2.7-3.1
					c-1.6-2.2-3.4-4.3-4.7-6.7c-0.7-1.3-1.1-2.7-1.7-4c-0.3-0.6-0.7-1.2-1-1.8c-0.3-0.6-0.4-1.3-0.7-1.9c-0.5-1.3-1.2-2.6-1.7-4
					c-0.5-1.4-1-2.9-1.5-4.3c-0.8-2.4-1.5-4.9-1.9-7.4c0-0.2-0.1-0.4-0.1-0.6c0-0.3-0.3,0.2,0.1,0c0.6-0.2,1.1-0.6,1.7-0.9
					c1.3-0.7,2.7-1.5,4.2-2c1.2-0.4,2.5-0.8,3.8-0.4c1.2,0.4,2.5,0.9,3.5,1.8c2.6,2.1,4.7,4.7,6.7,7.4c1,1.4,1.9,2.9,3,4.3
					c0.5,0.6,0.6,1.1,1,1.8c0.3,0.7,0.8,1.2,1.3,1.7c1.4,1.3,3.5-0.8,2.1-2.1c-0.6-0.6-0.8-1.1-1.1-1.8c-0.3-0.6-0.8-1.1-1.2-1.7
					c-1.1-1.5-2.1-3.1-3.2-4.6c-2-2.7-4.2-5.3-6.9-7.4c-2.5-1.9-5.7-2.9-8.8-2.1c-1.5,0.4-3,1.1-4.3,1.8c-0.7,0.3-1.3,0.7-1.9,1
					c-0.7,0.4-1.7,0.7-2.2,1.3c-0.9,0.9-0.7,2.1-0.5,3.3c0.2,1.6,0.7,3,1,4.6c0.2,1.4,0.9,2.8,1.4,4.2c0.6,1.7,1.1,3.4,1.8,5.1
					c0.6,1.4,1.2,2.8,1.7,4.2c0.2,0.6,0.6,1.1,1,1.7c0.5,1,0.9,2.1,1.3,3.1c1.2,3,3.4,5.4,5.2,8c0.5,0.6,0.9,1.3,1.5,1.9
					c0.6,0.6,1.1,1.3,1.7,2c0.5,0.6,1.1,1,1.7,1.5c0.6,0.5,1.1,1.2,1.8,1.6c1.5,0.8,3.4,1.4,5,1.6c1.5,0.2,2.9,0.3,4.3-0.3
					C709.5,193.6,708,191,706.2,191.8L706.2,191.8z"/>
			</g>
		</g>
		<g>
			<g>
				<path d="M709.3,166.7c-0.2-0.5-0.4-1-0.6-1.5c-0.2-0.6-0.1-0.9-0.1-1.6c0.1-1.2-0.1-2.4-0.2-3.6c-0.1-2.9,0.3-5.7,0.7-8.6
					c0.8-5.6,0.9-11.3,1.4-16.9c0.3-2.7,0.8-5.3,1-8c0.2-2.6,0.2-5.2,0.3-7.8c0.3-5.5,0.3-11,0.8-16.5c0.3-2.8,0.5-5.5,0.9-8.3
					c0.4-2.4,0.8-4.8,2.1-6.9c0.4-0.7,0.9-1.3,1.7-1.5c1-0.3,2.4,0.5,3.3,1.1c2.1,1.3,3.1,3.8,3.9,6c0.9,2.6,1.9,5.1,2.5,7.8
					c0.3,1.3,0.4,2.6,0.5,4c0.1,1.3,0.3,2.7,0.4,4c0.1,2.8-0.2,5.7,0,8.5c0.1,2.6-0.3,5.1-0.4,7.7c0,3-0.1,6-0.8,8.9
					c-0.3,1.4-0.6,2.8-0.8,4.2c-0.2,1.2,0,2.5-0.3,3.7c-0.6,2.8-1,5.6-1.5,8.5c-0.3,1.5-0.4,3-0.5,4.5c-0.1,1,0.3,2.6-0.1,3.5
					c-0.8,1.8,1.8,3.3,2.6,1.5c0.5-1,0.5-2,0.5-3.1c0-1.4,0.1-2.8,0.2-4.2c0.3-2.8,1-5.6,1.5-8.4c0.2-1.2,0.6-2.5,0.6-3.8
					c0-1.3,0.1-2.5,0.4-3.8c0.6-2.8,1.2-5.6,1.3-8.5c0.1-2.7,0.1-5.3,0.4-8c0.1-1.4,0-2.9,0-4.3c0-1.6,0.1-3.3,0.1-4.9
					c0-2.9-0.3-5.9-0.7-8.7c-0.4-2.9-1.3-5.6-2.3-8.4c-0.9-2.7-1.8-5.2-3.7-7.3c-0.8-0.9-1.7-1.7-2.8-2.2c-1.1-0.6-2.3-1.2-3.6-1.2
					c-5.2,0.1-6.7,7-7.3,11c-0.4,2.8-0.7,5.7-1,8.6c-0.3,3.1-0.6,6.2-0.6,9.3c-0.1,5.7-0.1,11.5-0.7,17.2c-0.3,3.3-0.8,6.6-1.1,10
					c-0.2,3.5-0.5,6.9-0.9,10.4c-0.3,3.4-1.1,6.8-1,10.2c0,1.5,0.2,3,0.2,4.4c0,0.6-0.2,1.1,0,1.8c0.2,0.8,0.5,1.5,0.8,2.3
					C707.1,169.3,710,168.5,709.3,166.7L709.3,166.7z"/>
			</g>
		</g>
		<g>
			<g>
				<path d="M727,159.5c1-2.7,1.9-5.4,3.5-7.8c0.8-1.2,1.7-2.3,2.8-3.3c0.9-0.9,1.9-2,3-2.6c0.5-0.3,1-0.4,1.6-0.6
					c0.3-0.1,0.5-0.2,0.7-0.1c0.2,0.1,0.5,0.5,0.6,0.6c0.9,1,1.6,2.1,2.2,3.3c0.6,1.2,1.1,2.6,1.6,3.9c0.3,0.8,0.5,1.5,0.8,2.3
					c0.2,0.4,0.7,1.3,0.6,1.7c0.9-0.1,1.8-0.2,2.7-0.4c-0.6-0.9,0-2.2,0.2-3.3c0.2-1.3,0.4-2.5,0.7-3.8c0.5-2.3,1.5-5,3.4-6.5
					c1-0.7,2.4-0.9,3.5-1c1.3-0.1,2-0.2,2.8,1c1.3,2.1,1.8,4.7,2.1,7.1c0.2,1.5,2.6,2.2,3,0.4c0.5-2.4,1.8-5,3.4-6.9
					c0.3-0.3,0.6-0.6,0.9-0.9c0.1-0.1,0.2,0,0.2-0.1c0.3,0.1,0.6,0.4,0.9,0.8c1.6,2.1,2.3,4.9,3,7.4c0.3,1.3,0.8,2.5,1.1,3.8
					c0.3,1.4,0,2.8,0,4.2c0,1.3,0.2,2.5,0,3.8c-0.2,1.4-0.1,2.7-0.1,4.1c0,2.8-0.4,5.7-0.6,8.5c-0.2,3-1,5.9-2,8.8
					c-0.5,1.5-1,3-1.5,4.4c-0.6,1.6-1,3.3-1.8,4.9c-0.5,1.1-1.4,1.9-2.2,2.7c-1,1-2,2.1-3.4,2.6c-1.8,0.7-1,3.6,0.8,2.9
					c2.5-0.9,4.8-3.1,6.5-5.2c1.9-2.5,2.6-5.9,3.7-8.9c1.1-3.2,2.2-6.4,2.7-9.7c0.2-1.6,0.3-3.2,0.4-4.9c0.1-1.7,0.5-3.5,0.5-5.2
					c0-1.4-0.2-3,0-4.4c0.2-1.7,0.1-3.2,0.2-4.9c0.1-1.4,0.2-2.9-0.1-4.4c-0.4-1.6-1-3.1-1.4-4.7c-0.8-2.9-1.8-6.5-4.1-8.6
					c-1.6-1.5-3.6-1.3-5.2,0.2c-1.1,1-1.8,2.4-2.6,3.7c-1,1.6-1.7,3.2-2.1,5.1c1,0.1,2,0.3,3,0.4c-0.4-3.2-1.1-7-3.2-9.5
					c-2.2-2.6-6.3-1.8-9.1-0.6c-1.5,0.6-2.5,2.1-3.4,3.4c-1,1.4-1.5,3-1.9,4.6c-0.4,1.7-0.6,3.5-1,5.3c-0.3,1.7-0.8,3.2,0.3,4.8
					c0.6,0.9,2.5,1,2.7-0.4c0.3-1.8-0.7-3.5-1.3-5.1c-0.6-1.6-1.2-3.3-1.9-4.9c-0.8-1.6-1.7-3.1-3-4.4s-2.5-1.5-4.2-0.9
					c-0.8,0.3-1.6,0.5-2.3,0.9c-0.7,0.4-1.3,1.1-1.9,1.6c-1.3,1.1-2.6,2.4-3.7,3.8c-2.3,3-3.6,6.6-4.9,10.1
					C723.5,160.5,726.4,161.3,727,159.5L727,159.5z"/>
			</g>
		</g>
		<g>
			<g>
				<path d="M760.9,199.9c-0.4,1.5-0.5,3.2-0.7,4.8c-0.2,1.5,0,3-0.2,4.5c-0.3,3.4,0,6.8,0.4,10.1c0.3,3.2,0.4,6.5,0.8,9.8
					c0.2,1.6,0.2,3.2,0.1,4.9c0,0.8-0.1,1.6,0,2.4c0,0.4,0.4,1.4,0.2,1.7c-0.8,1.8,1.8,3.3,2.6,1.5c0.5-1.3,0.2-2.4,0.2-3.7
					c0-1.7,0.2-3.5,0.1-5.2c-0.2-3.3-0.5-6.6-0.8-9.9c-0.4-3.4-0.8-6.8-0.7-10.2c0-0.8,0.2-1.5,0.2-2.3c0-0.9-0.1-1.8,0-2.7
					c0.1-0.8,0.3-1.7,0.4-2.5c0.1-0.8,0.1-1.6,0.3-2.4C764.3,198.8,761.4,198,760.9,199.9L760.9,199.9z"/>
			</g>
		</g>
	</g>
	<g>
		<g>
			<path d="M664.2,304.7c0.3,0.1,0.8,1,1,1.3c0.4,0.5,0.8,1,1.2,1.5c0.8,1.2,1.5,2.3,2.5,3.4c1.8,1.9,3.9,3.2,6,4.8
				c2.1,1.6,4.2,3.2,6.2,4.8c0.8,0.6,1.6,1.3,2.6,1.7c1,0.4,1.9,0.6,3,0.8c1.9,0.4,2.7-2.5,0.8-2.9c-1-0.2-1.9-0.3-2.8-0.8
				c-0.9-0.5-1.8-1.2-2.6-1.9c-2-1.6-4.1-3.2-6.2-4.9c-2.1-1.6-4.4-2.8-5.9-5.1c-0.7-1.1-1.4-2.1-2.2-3.2c-0.8-1-1.4-2.3-2.8-2.7
				C663.2,301.3,662.3,304.2,664.2,304.7L664.2,304.7z"/>
		</g>
	</g>
	<path d="M715.9,445.9c-6.3-20.8-12.5-41.7-19.2-62.4c-4.5-13.9-9.7-27.7-14.7-41.4c-4.5-12.3-8.8-24.7-14.1-36.7
		c-6.2-13.9-18.5-22.2-31.2-31.4c4.3-4,8.7-7.6,12.5-11.9c6.1-6.9,11.3-14.4,11.3-24.3c-0.1-15.9-1.6-31.4-8.7-46
		c-2-4.2-3.5-10.1,0.7-14.2c5-4.9,4.5-10.2,2.5-15.8c-1.3-3.8-3.4-7.3-5.5-11.6c7.7-3.6,9.7-9.1,8.7-16.6c-0.7-5-0.2-10.2-0.1-15.4
		c0.4-19.6-6.8-36.6-19.3-50.8c-18.7-21.3-41.9-36.6-69.2-45c-12.6-3.9-25.7-5.7-38.5-2.3c-21.3,5.7-37,20.6-51.8,36
		c-5.8,6-9,14.3-14,21.2c-3.6,5-7.2,9.8-7.3,16.3c-0.1,5.1-0.6,10.2-0.9,15.3c-0.3,4.5,0.9,9.6-4.9,12c-1,0.4-1.2,3-1.6,4.6
		c-0.6,2.5-0.4,5.3-1.7,7.4c-3.9,6.7-4.6,15.8-13.6,18.8c-0.5,0.2-0.8,1-1,1.6c-1.5,4.6-5.1,6.6-9.6,7.4c-5.5,0.9-10.9,1.7-16.4,2.2
		c-8,0.7-16,1-24,1.6c-0.7,1.4-1.6,2.8-2.5,4.1c7.2-0.6,14.4-0.9,21.6-1.5c4.4-0.4,8.8-0.4,13.2-0.6c1.5,6.3,2.9,11.6,4.1,17
		c6.6,29.9,19.5,56.6,39.5,79.9c4.1,4.8,7.8,10.6,13,13.8c9.4,5.8,19.4,10.7,29.7,14.7c16,6.3,33.1,7.4,50.2,8.2
		c18.1,0.8,34.5-3,49.8-12.6c2.2-1.4,5.2-2.1,7.8-2.3c8.7-0.5,16.8-2.8,23.9-8.1c0.7,0.6,1.3,1.3,2,1.7c21,11.8,31.5,31.5,38.8,53.3
		c4.3,12.9,7.7,26,11.8,39c1.8,5.4,5.1,10.3,6.8,15.8c6.2,19.5,12,39.1,18,58.6c0.5,1.7,1.7,3.1,2.6,4.6c0.5-0.2,0.9-0.4,1.4-0.6
		C716,448.3,716.2,447,715.9,445.9z M652,169.8c0.9,5-4.5,5.4-8,6.5c-2.4,0.7-5,0.5-6.4,0.6c-8.7,0.2-13.1-3.2-14-10.1
		c-0.8-6,3.3-13.1,8.9-13.9c4.4-0.6,11-1.8,13,0.5C649.1,157.6,651,164,652,169.8z M634.8,68.2c-24.2-3.2-48.1-7.3-70.7,5.9
		c6.1-7.1,13.8-11.8,22.7-12.4c13.3-0.9,26.8-0.6,40.1,0.1C629.7,61.9,632.3,65.4,634.8,68.2z M595.4,37.8c4.7,2.7,9.3,5.4,14,8.1
		c-0.4,0.7-0.7,1.3-1.1,2c-4.7-2.7-9.5-5.3-14.2-8C594.6,39.2,595,38.5,595.4,37.8z M598.1,47c-10,0.8-19.5,1.5-29.2,2.2
		C576.2,42.1,587.1,41.2,598.1,47z M590.9,35.8c0,0.6-0.1,1.3-0.1,1.9c-8.4,0.4-16.8,0.8-26.7,1.3C570.9,33.9,585.5,32.7,590.9,35.8
		z M569.7,27.5c-4.8,0.5-8.5,0.9-12.3,1.3C560.1,23,560.4,23,569.7,27.5z M469.6,76.5c5-7.1,8.9-15.3,15-21.3
		c12-11.8,25.1-22.3,40.6-29.4c2.6-1.2,5.5-2,8.2-3c0.2,0.5,0.5,1,0.8,1.5c-7.2,3.7-14.4,7.4-21.6,11.1c0.3,0.6,0.5,1.2,0.8,1.7
		c9.3-0.9,16.3-8.6,27-10.2c-13.9,9.6-29.9,15-36.4,31.4c5.2-8.4,15.4-8.8,22.3-15.1c0.8,1.4,1.3,2.4,2.3,4.2
		c10.9-8.9,23.1-14.6,37.5-15.1c-4.8,2-9.7,3.7-14.3,6.1c-2.6,1.4-4.4,4-6.7,6c-2.7,2.3-6,4.1-8,6.8c-5.6,7.3-10.7,15-15.8,22.6
		c-0.4,0.6,0.2,1.9,0.5,4c8-10.8,17.1-18.9,28.5-24c-2.1,6.4-5.4,11.9-10.8,16.3c-2.5,2.1-4.2,5.2-6.2,7.9c0.7,0.6,1.4,1.1,2.1,1.7
		c4-7.4,13.6-8.9,16.3-17.9c1.6-5.2,7-6.5,11.9-7.6c17.2-3.9,34.6-3.5,52.2-2.2c-20.3-1.7-38.2,5.1-55.8,15.2
		c0.2,2.8,0.5,6.1,0.9,10.1c-4,3.1-8.6,6.7-13.2,10.3c0.4,0.6,0.8,1.3,1.3,1.9c12.7-6.4,23-17.9,37.8-19.8c0.3,0.5,0.5,1.1,0.8,1.6
		c-3.5,1.6-6.8,3.5-10.4,4.6c-7,2.1-7,1.9-5.9,10.9c1.3-1,2.5-1.8,3.5-2.7c8.4-7.8,18.6-11,29.7-11.3c10.2-0.3,20.5-0.2,30.7,0.1
		c2.1,0.1,4.8,1.5,6,3.1c14,18.9,14.4,40.9,13.3,63.1c-0.1,1.4-0.9,2.7-1.8,4.9c-1.7-2.4-2.9-4.2-3.9-5.7h-23.9v8.9
		c7.2-0.5,14.1-0.9,21.9-1.4c-5.2,4-66,6.9-77.5,3.8c6.3-0.5,11.2-0.6,16-1.4c1.8-0.3,3.3-2.1,4.9-3.2c-1.6-1.2-3.2-3.3-4.9-3.4
		c-6.4-0.4-12.8-0.3-19.1-0.1c-6.2,0.2-6.9,2.2-3.9,7.5c1,1.8,1.2,5.1,0.2,6.6c-1,1.4-4.4,2.3-6.2,1.7c-7.1-2.2-14-5-21-7.7
		c-5.1-1.9-10.2-3.9-15.3-5.9c2.2-8.8,0.8-15.2-5.5-22.1c-4.2-4.7-8.6-7.1-13.8-9.5c-2.1-1-3.6-3.2-5.7-4.5c-3.2-2.1-6.9-3.5-10-5.7
		c-3.5-2.5-6.7-5.4-9.8-8.5c-1.6-1.7-2.3-4.1-3.8-6C468.5,84.1,466.6,80.8,469.6,76.5z M560.7,49.1c-3.2,1.4-6.4,2.8-9.6,4.2
		c2.8-2.2,5.5-4.3,8.3-6.5C559.8,47.6,560.3,48.3,560.7,49.1z M592.9,154.6h28.6c-0.3,7.5-1.1,8.3-8.5,8.3c-2.3,0-4.7-0.1-7,0.2
		c-2.3,0.2-4.6,0.8-7.5,1.3C596.7,161.2,595.1,158.5,592.9,154.6z M594.5,170.9c-0.5,5.4-3.4,7.1-12.9,7.4
		c-6.4,1.2-11.7-2.3-16.5-6.1c-4.8-3.8-2.9-13.2,3.1-14.5c5.7-1.3,11.9-1.6,17.7-1.1C592,157.2,595.2,163.4,594.5,170.9z
		 M480.4,122.2c0,0.6,0,1.1,0,1.7c-1.6-0.2-3.2-0.3-4.8-0.5c0-0.4,0-0.8,0.1-1.2H480.4z M608,281.7c-7.3,0.7-14.4,3.1-21.7,4.4
		c-15.6,2.7-30.4-1.3-45-6c-1.8-0.6-3.6-0.9-5.5-1.3c-0.2,0.8-0.3,1.5-0.5,2.3c15.4,7.5,31.8,10.3,49.2,9.6
		c-6.8,4.5-14.5,5.5-22.2,5.9c-29,1.2-56.4-4.9-82-18.6c-9.8-5.2-15.7-14.3-22.1-22.7c-11.5-15.1-21.5-31.3-27.4-49.5
		c-3.5-10.9-6.4-22.1-9.4-33.1c-0.6-2.2-0.4-4.5-0.6-7.3c3.7,0.2,7.3-4,9.7,1.6c0.1,0.3,0.7,0.6,1.1,0.6c9.2,1.9,18.5,3.9,27.7,5.8
		c3.5-4,6.7-7.7,10.3-11.8c2.9,1.2,6.6,2.7,10.4,4.2c0.4-0.7,0.7-1.3,1-2c-1.6-1-3-2.4-4.7-3c-5.3-1.8-7.3-5.2-7-10.7
		c0.4-5.3-0.3-10.8,0.6-15.9c0.4-2.4,3.4-4.3,5.1-6.5c2.2,2.3,4.5,4.5,6.5,7c0.9,1.1,1,2.7,1.4,4.1c0.5-0.1,1-0.1,1.6-0.2
		c0.4-2.4,0.8-4.7,1.5-9.2c2.1,2.9,4.3,4.6,4.4,6.4c0.6,8.4,0.9,16.8,0.7,25.2c-0.1,5.9-1.1,11.8-1.7,17.4c12,5.9,15,0.2,18.8-9.8
		c2.4-6.2,4.5-12.6,7-18.7c0.4-0.9,3-1.7,4.3-1.4c3.5,0.7,7,1.8,10.4,3.1c6.4,2.4,12.5,5.4,19,7.5c6,1.9,10.9,3.7,10.7,11.6
		c-0.1,2.1,2.5,5,4.7,6.4c8,5.6,17.3,5.8,26.5,4.6c4.3-0.6,6.7-4.3,7.3-8.7c0.2-1.6,0.5-3.3,0.7-5.2c3.5-0.4,6.6-0.8,9.8-1.1
		c6.2-0.6,11.7-0.4,13.7,7.4c1.3,4.8,5.4,6.8,10.5,6.6c4.2-0.1,8.5,0,12.6,0c3.2,18.3,12.4,34.4,11.6,53.2
		c-0.5,12.8-6.5,21.6-14.4,30.2c-1.4,1.5-3.4,2.6-4.8,4.2C630.1,277.5,619.7,280.6,608,281.7z"/>
	<path d="M574.7,446.7c-15.2,11.1-28.7,22.6-47.9,23.8c-28.3,1.8-53.1-7.8-76.8-21.8c-1.4-0.8-2-3.1-2.9-4.7c0.5-0.3,1-0.6,1.4-1
		c7.5,4.1,15,8.4,22.6,12.3c21.5,11,44.5,14.1,67.6,8.4c9.3-2.3,17.2-10.4,25.9-15.6C567.1,446.8,569.2,442.7,574.7,446.7z"/>
	<path d="M624.3,443.8c2.5,1.7,5.3,3.1,7.6,5.1c6.5,5.6,13.3,10.4,22,12c15.3,2.7,28.6-0.8,39.5-12.4c1.6-1.7,3.5-3,6.1-5.1
		c-0.5,9.2-16.6,20.6-29.7,22.4C654,468,627.2,456,624.3,443.8z"/>
	<path d="M611.7,210c7.8-0.6,16,1.3,23.7,5.5c5,2.8,8.4,6.4,7.6,12.7c-0.3,2.7-0.1,5.5-0.4,8.3c-1.4,15.5-17.1,19.7-29.9,18.2
		c-0.8-0.1-1.6-0.6-2.5-0.7c-18-1.5-23.2-14.5-26.3-29.7c-0.4-1.9,1-5.1,2.7-6.4C594,212.1,601.3,210,611.7,210z M588.3,223.7
		c2.4,23.7,18.2,30,35.7,27c12-2,17.4-11.9,13.9-22.1c-1.5,0.9-3.5,1.4-4.2,2.6c-2.8,5.1-7.9,5.4-12.5,6.1
		c-4.1,0.7-8.3,0.4-12.5,0.4c-6.8,0-13.1-0.7-14.8-9.2C593.6,227,591,225.9,588.3,223.7z M618.3,234.2c3.2-0.6,5.3-0.8,7.3-1.4
		c4-1.3,5-4.8,4.4-8.2c-0.5-3.1-1.5-7.9-3.5-8.6c-9.1-3.3-18.6-4.1-28.2-0.5c0,4-0.2,7.6,0,11.2c0.3,5,3.3,7.4,8.5,7.6
		c5.2,0.2,7.3-2.4,7.5-7.3c0.1-3.4,0.3-6.8,0.5-10.2c0.8,0,1.6,0,2.4,0C617.6,222.3,617.9,227.7,618.3,234.2z"/>
	<path d="M627.3,197.6c-2.1-7.5-5-11.7-12.4-12.4c-12.3-1.3-11.8,6.9-12.2,15.4c-3.2-4.7-3.3-9.6-2.2-14c1.2-4.5,5.6-4.6,9.6-4.5
		c3.2,0,6.4-0.3,9.6,0.1C626.3,182.9,630.2,189.7,627.3,197.6z"/>
	<path d="M473.4,155.7c0-4.5,0-8.2,0-13.6c2.4,2.6,3.8,4.1,5.5,6c2.1-1.3,4.3-2.7,6.5-4.1c0.4,0.3,0.7,0.6,1.1,0.9
		c-2.3,3.5-4.5,6.9-7,10.7C477.5,155.7,475.1,155.7,473.4,155.7z"/>
	<circle cx="616.1" cy="266.8" r="2"/>
	<circle cx="608.3" cy="198" r="2"/>
	<circle cx="620.7" cy="197.4" r="2"/>
	<g>
		<g>
			<path d="M262.6,539.7c0,1.7,0.3,3.3,0.6,5c0.3,1.8,0.2,3.7,0.4,5.5c0.2,3.5,0.6,7.1,0.8,10.6c0.2,3.6,1.4,7,1.7,10.5
				c0.1,1.6,0.2,3.3,0.5,4.9c0.4,1.8,1,3.6,1.5,5.4c2,7,3.8,14.1,6.1,21.1c1.1,3.4,2.5,6.7,3.7,10.1c1.1,3.2,2.4,6.1,3.9,9.2
				c0.7,1.4,1.3,3,2.2,4.3c0.9,1.5,1.9,2.8,2.8,4.3c1.5,2.8,3.4,5.3,5,8c3.4,5.7,7.8,11,12.4,15.9c2.3,2.5,4.8,4.5,7.3,6.6
				c2.4,2,4,4.6,6.6,6.4c2.7,1.9,4.9,4.2,7.4,6.2c2.6,2.2,5.5,3.9,8.3,5.8c5.6,3.8,11.2,7.5,17.4,10.2c6.2,2.6,12.2,5.8,18.6,7.8
				c3.3,1,6.7,1.5,10.1,2.1c3.6,0.7,7.1,1.6,10.7,2.1c7.4,1.2,14.8,2,22.2,3.1c3.5,0.5,6.8,0.3,10.3,0.3c3.6,0.1,7.1,1.3,10.6,2
				c7.3,1.4,14.5,2.9,21.8,4.3c7.4,1.5,14.9,2.6,22.3,4c3.5,0.6,7,0.8,10.5,1.3c3.6,0.5,7.3,0.5,10.9,0.5c3.7,0,7.1,0.5,10.7,1.1
				c3.6,0.6,7.3,0.3,10.9,0.8c3.6,0.5,7.1,1,10.6,1.8c1.7,0.4,3.3,0.8,5,1.1c1.7,0.3,3.5,0.3,5.2,0.6c3.3,0.7,6.2,2.3,9.7,2.4
				c1.6,0,3.2-0.2,4.7,0.1c1.6,0.3,3.2,0.8,4.8,0.9c7,0.4,14.1-1.4,21-2.8c1.8-0.4,3.5-0.8,5.3-0.8c1.8-0.1,3.5,0.1,5.3,0.1
				c1.9,0,1.9-3,0-3c-3.5,0-6.7,0-10.2,0.6c-3.6,0.7-7.2,1.5-10.8,2.1c-3.4,0.5-6.9,1-10.3,0.8c-1.6-0.1-3-0.5-4.6-0.8
				c-1.7-0.3-3.3-0.2-5-0.1c-3.4,0-6.4-1.8-9.7-2.4c-1.5-0.3-3.1-0.2-4.7-0.5c-1.8-0.3-3.5-0.8-5.3-1.2c-3.5-0.8-7.1-1.3-10.7-1.8
				c-3.5-0.5-7.1-0.2-10.6-0.7c-3.5-0.5-6.7-1.1-10.2-1.2c-3.6,0-7.3,0.1-10.9-0.3c-1.7-0.2-3.3-0.5-5-0.7c-1.9-0.2-3.8-0.3-5.6-0.6
				c-3.5-0.6-7.1-1.3-10.6-1.8c-7.3-1.1-14.5-2.7-21.7-4.3c-3.6-0.8-7.2-1.4-10.8-2c-3.3-0.6-6.7-1.7-10-2.1
				c-3.5-0.4-7,0.1-10.4-0.2c-3.6-0.3-7.1-1.1-10.7-1.6c-7.3-1-14.5-1.9-21.8-3.4c-3.4-0.7-6.9-1-10.3-2c-3.2-0.9-6.3-2.1-9.3-3.4
				c-6.2-2.7-12.5-5.2-18.4-8.6c-2.8-1.6-5.5-3.4-8.2-5.3c-2.8-1.9-5.7-3.7-8.4-5.8c-2.6-2-4.7-4.4-7.3-6.3
				c-1.2-0.9-2.4-1.7-3.4-2.8c-1-1.2-2-2.4-3.2-3.4c-2.5-2.2-5.1-4.1-7.4-6.5c-2.3-2.4-4.4-5-6.5-7.6s-4.1-5.1-5.9-8
				c-1.6-2.7-3.5-5.2-5-8c-0.7-1.4-1.5-2.7-2.4-3.9c-1-1.5-1.7-3-2.5-4.6c-0.7-1.4-1.5-2.7-2.1-4.2c-0.7-1.7-1.2-3.4-1.8-5.1
				c-1.2-3.3-2.5-6.5-3.6-9.8c-1.1-3.4-2.1-6.9-3.1-10.3c-1-3.5-1.9-7-2.9-10.4c-0.5-1.6-1-3.2-1.4-4.8c-0.5-1.8-0.5-3.7-0.7-5.6
				c-0.4-3.6-1.6-7-1.7-10.5c-0.1-3.6-0.6-7.1-0.8-10.7c-0.1-1.5,0-3.1-0.2-4.6c-0.2-1.8-0.6-3.5-0.6-5.3
				C265.6,537.8,262.6,537.8,262.6,539.7L262.6,539.7z"/>
		</g>
	</g>
	<path class="st0" d="M323.7,608c0-0.3-0.1-0.7-0.1-0.9c0-0.8,0-1.7-0.1-2.5c-0.1-1.7-0.3-3.3-0.5-5c-0.5-3.5-2.4-4.9-5.2-6.5
		c0.5-0.9,0.7-2,0.4-3.2c-1.1-4.1,1-8.2-0.5-12.3c-1.2-3.3-3.7-4.7-6.4-6.3c0.5-2.4,1.7-4.9,2-7.2c0.2-1.6,0.5-10-1.2-10.8
		c1.3-1,2-2.8,1.8-4.4c0-2.3-1.4-4.4-4.3-4.1c-9.6,1.1-19.2,1.7-28.9,1.7c-1.5,0-2.5,0.6-3.3,1.4c-1.5-0.4-3.2-0.2-4.4,1.1
		c-1.5,1.6-1.8,4.2-0.4,5.9c-1,2.4-1.8,4.8-2.2,7.4c-0.2,1-0.1,2,0.2,2.9c-7.7,3.2-13.5,6.9-15.7,16c-2,8.2-2.9,18.4,4.8,23.7
		c0.3,0.2,0.5,0.3,0.8,0.4c0.1,0.8-0.1,1.7-0.1,2.2c0,1.8,0,3.7,0.2,5.5c0.3,3.2,0.7,6.7,3.4,8.8c6.8,5.3,10.6-4.5,12.8-9.8
		c0.8,0.2,1.6,0.3,2.5,0.1c-0.4,0.1,0.5,0.2,0.9,0.6c0.5,0.5,0.7,1.1,0.9,1.8c0.5,2,0.1,4.3-0.1,6.3c-0.2,2.4,2.2,4.5,4.5,4.5
		c2.6,0,4.2-2.1,4.5-4.5c0.2-2.1,0.3-4.2,0.1-6.3c0.8-0.2,1.4-0.6,1.9-1.1c0.8,0,1.6-0.1,2.5-0.2c0,0,0,0,0,0
		c0.1,1.3,0.8,2.5,1.9,3.3c0.1,1.5,0.5,2.8,1.4,4.1c2.1,3.1,6.6,3.6,9,0.5c1.2-1.6,1-3.5,0.9-5.4c0-0.9-0.1-1.9-0.2-2.8
		c0,0,0.1,0,0.1,0c0.6-0.1,2.4-0.5,2.9-0.1c0.1,0.1,0.8,2.9,1.1,3.4c1,1.7,2.5,2.6,4.1,3.1c1.7,2.2,5.6,3,7.7-0.1
		c1.1-1.6,1.1-3.3,0.8-5.2c0-0.3-0.2-0.5-0.3-0.8c0.2-0.4,0.5-0.8,0.6-1.2C325,610.4,324.6,609,323.7,608z"/>
	<g>
		<g>
			<path d="M712.8,446.5c0,1.1,0.6,1.7,1.2,2.6c0.7,1.1,1.1,2.4,1.6,3.6c0.5,1.1,0.9,2.2,1.2,3.5c0.3,1.4,1,2.6,1.6,3.9
				c2.2,5.1,3.7,10.4,5.1,15.8c1.5,5.4,2.6,11,3.8,16.4c0.6,2.7,1,5.5,1.7,8.2c0.3,1.2,0.7,2.4,1,3.7c0.2,1.2,0.3,2.5,0.6,3.7
				c0.7,2.4,1.1,4.9,1.8,7.3c0.3,1.3,0.5,2.6,1,3.8c0.4,1.2,0.9,2.3,1.1,3.6c0.5,2.7,1.5,5.3,2.1,7.9c0.7,2.8,1.2,5.5,1.6,8.3
				c1.7,11.4,3.8,22.9,4.4,34.5c0.2,3.3,0.2,6.6,0.1,10c0,3.2,0.2,6.5-0.1,9.8c-0.2,3.1-0.8,6.1-1.1,9.2c-0.2,1.6-0.4,3.3-0.6,4.9
				c-0.2,1.6-0.7,3.1-0.8,4.7c-0.2,1.9,2.8,1.9,3,0c0.1-1.3,0.5-2.6,0.7-3.9c0.2-1.5,0.4-2.9,0.5-4.4c0.3-2.9,0.8-5.7,1.1-8.5
				c0.3-2.8,0.2-5.6,0.2-8.4c0-2.9,0-5.8,0-8.7c-0.1-5.8-0.7-11.6-1.4-17.4c-0.7-5.7-1.5-11.4-2.4-17.1c-0.9-5.6-1.6-11.1-3.2-16.5
				c-0.4-1.3-0.8-2.6-1.1-3.8c-0.3-1.3-0.4-2.5-0.9-3.7c-0.5-1.2-0.8-2.5-1.1-3.9c-0.3-1.3-0.8-2.6-1-3.9c-0.2-1.1-0.3-2.2-0.6-3.3
				c-0.4-1.3-0.7-2.5-0.8-3.9c-0.4-2.6-1.3-5.1-1.9-7.7c-1.1-5.5-2.4-10.9-3.6-16.4c-0.7-3.1-1.5-6.2-2.4-9.3
				c-0.8-3.1-1.7-6.1-2.9-9.1c-0.6-1.4-1.2-2.8-1.8-4.2c-0.6-1.3-0.9-2.7-1.3-4c-0.5-1.4-1.1-2.7-1.7-4.1c-0.3-0.7-0.5-1.4-0.9-2
				c-0.2-0.3-0.9-0.9-0.9-1.2C715.7,444.5,712.7,444.5,712.8,446.5L712.8,446.5z"/>
		</g>
	</g>
	<g>
		<g>
			<path d="M740.3,609.4c0.3,3.4-1.3,6.6-2.4,9.7c-1.2,3.1-1.6,6.6-3.2,9.5c-1.5,2.7-3.7,5-5.8,7.3c-2.1,2.3-4,4.7-5.8,7.2
				c-1.8,2.5-3.7,5-6,7c-2.6,2.2-5.2,4.2-7.8,6.4c-5,4.2-10,8.6-15.1,12.7c-5.2,4.2-10.5,8.2-16.1,11.8c-5.9,3.8-12.2,6.5-18.7,9.2
				c-6.5,2.8-12.9,6.2-19.3,9.1c-3.2,1.5-6.5,2.8-9.5,4.7c-2.9,1.8-5.6,3.7-8.7,5.2c-3.6,1.6-7.2,3-10.8,4.5
				c-3.6,1.5-7.2,3.2-10.8,4.6c-7.2,2.8-14.7,5.1-22.5,4.9c-1.9,0-1.9,3,0,3c14.4,0.3,27.7-7,40.6-12.3c3.2-1.3,6.4-2.7,9.4-4.5
				c2.9-1.8,5.6-3.8,8.7-5.2c3.4-1.6,6.9-3.1,10.3-4.7c3.4-1.6,6.7-3.3,10.1-4.9c6.4-3.1,13.1-5.4,19.3-9
				c5.9-3.4,11.5-7.5,16.9-11.7c5.4-4.3,10.6-8.8,15.8-13.2c2.6-2.2,5.2-4.3,7.8-6.5c2.5-2,4.9-4.1,6.9-6.7c2.2-2.8,4.1-5.8,6.5-8.4
				c2.4-2.6,5-5.1,6.8-8.2c2-3.2,2.6-7,3.8-10.5c1.3-3.7,3.2-7.3,2.8-11.3C743.2,607.5,740.1,607.5,740.3,609.4L740.3,609.4z"/>
		</g>
	</g>
	<g>
		<g>
			<path d="M293.8,361.8c-0.1,6-1.1,11.9-2.5,17.7c-1.4,5.9-3.1,11.7-3.9,17.7c-0.4,3-0.8,6.1-1.3,9c-0.6,3-1.3,6.1-2.1,9.1
				c-1.5,6-3.1,11.9-4.9,17.8c-1.7,5.8-3.5,11.7-5.3,17.5c-1.8,5.5-3.7,11.1-4.2,16.9c-0.3,3-0.1,6.1-0.1,9.1c0,3.1,0.1,6.2,0.1,9.4
				c0,3,0,6-0.5,9c-0.5,2.8-1.3,5.6-1.7,8.4c-0.5,3.3-0.4,6.5-0.4,9.8c0,1.7,0,3.4-0.3,5c-0.3,1.6-0.8,3.1-1.1,4.7
				c-0.7,3-0.9,6-1.2,9c-0.3,3.2-1.3,6.3-1.3,9.5c0,1.9,3,1.9,3,0c0-2.8,0.7-5.5,1.1-8.3c0.4-2.8,0.4-5.5,1-8.2
				c0.6-2.8,1.5-5.6,1.7-8.5c0.2-3,0-6,0.1-9c0.2-5.8,2.5-11.2,2.6-17c0.1-6.1,0-12.3,0-18.5c0-3,0.2-5.8,0.8-8.7
				c0.6-2.8,1.4-5.5,2.3-8.3c1.9-5.8,3.7-11.6,5.4-17.5c3.5-11.8,7.2-23.8,8.9-36.1c0.5-3.4,0.8-6.7,1.6-10c0.7-3.2,1.6-6.5,2.4-9.7
				c1.6-6.5,2.9-13.2,3-19.9C296.8,359.8,293.8,359.8,293.8,361.8L293.8,361.8z"/>
		</g>
	</g>
	<g>
		<g>
			<path d="M293.8,356.6c0,5.1,0,10.3,0,15.4c0,1.9,3,1.9,3,0c0-5.1,0-10.3,0-15.4C296.8,354.7,293.8,354.7,293.8,356.6L293.8,356.6
				z"/>
		</g>
	</g>
	<g>
		<g>
			<path d="M384.3,165.4c-1.6,0-3.2,0.4-4.6,1.1c-0.8,0.4-1.4,0.9-2.1,1.4c-0.9,0.5-1.8,0.9-2.7,1.4c-1.3,0.8-2.4,1.9-3.6,2.8
				c-1.5,1.1-2.8,2.6-4.2,4c-1.1,1.1-2.4,2.2-3.6,3.2c-1.4,1.3-2.5,2.9-3.6,4.4c-1,1.3-1.9,2.8-2.8,4.1c-1,1.6-2.2,3.1-3,4.7
				c-1.6,3.2-3.7,6.1-5.1,9.4c-0.6,1.4-1.5,2.7-2.2,4.1c-0.8,1.5-1.8,3-2.8,4.4c-2.1,2.9-3.9,6-5.4,9.3c-0.8,1.6-1.4,3.3-1.9,5
				c-0.5,1.6-1.5,3-2.2,4.6s-1,3.2-1.5,4.8c-0.3,0.8-0.7,1.6-1,2.3c-0.4,0.9-0.6,1.9-0.9,2.9c-0.4,1.5-1,2.8-1.5,4.3
				c-0.5,1.8-1.5,3.4-2,5.1c-0.5,1.6-1.2,3.1-1.8,4.6c-0.8,1.9-1.4,3.9-2.1,5.9c-0.5,1.6-1.1,3.1-1.6,4.7c-0.6,1.8-1,3.5-1.8,5.2
				c-0.7,1.6-1,3.2-1.6,4.8c-0.6,1.7-1.2,3.4-1.7,5.1c-1,3.5-2.4,6.9-3.4,10.4c-0.5,1.8-1,3.5-1.6,5.3c-0.6,1.7-1.4,3.3-1.9,5
				c-0.2,0.8-0.3,1.5-0.7,2.3c-0.4,0.8-0.7,1.5-0.9,2.3c-0.5,1.8-1.1,3.5-1.7,5.3c-1.4,3.9-2.3,8-3.7,11.9c-0.7,2-1,4.1-1.7,6.1
				c-0.6,1.9-1.1,3.8-1.4,5.7c-0.2,1-0.4,2.1-0.7,3.1c-0.3,0.9-0.8,1.8-1.1,2.7c-0.7,1.9-0.8,4-1.2,5.9c-0.2,1-0.5,2-0.8,2.9
				c-0.3,1-0.3,2-0.6,3c-0.2,0.9-0.6,1.7-0.7,2.6c-0.2,0.9-0.4,1.7-0.8,2.6c-0.8,1.8,1.8,3.3,2.6,1.5c1.3-3,1.6-6.2,2.5-9.4
				c0.5-1.8,0.9-3.6,1.2-5.4c0.3-1.8,0.8-3.2,1.5-4.9c0.6-1.5,0.8-3.1,1.1-4.8c0.4-2,0.9-3.8,1.5-5.7c0.5-1.6,0.8-3.2,1.3-4.8
				c0.5-1.8,1.2-3.4,1.7-5.2c0.9-3.6,2.2-7,3.3-10.6c0.3-0.9,0.4-1.8,0.7-2.6c0.3-0.7,0.7-1.3,0.9-2s0.3-1.4,0.5-2.1
				c0.3-1,0.8-1.9,1.1-2.9c1.3-3.4,2.2-7,3.3-10.5c0.5-1.6,1.2-3.1,1.7-4.7c0.6-1.7,0.9-3.5,1.5-5.2c0.6-1.6,1-3.3,1.6-5
				c0.5-1.6,1.4-3,1.8-4.5c1-3.5,2.2-7,3.4-10.5c0.5-1.6,1.2-3.1,1.9-4.7c0.7-1.7,1.1-3.5,1.9-5.2c0.7-1.4,1.1-2.9,1.7-4.4
				c0.7-1.6,0.8-3.3,1.5-4.9c0.6-1.6,1.3-3.1,1.8-4.8c0.5-1.7,1.1-3.1,2-4.6c0.7-1.4,1.2-2.9,1.7-4.4c0.7-1.9,1.6-3.7,2.5-5.4
				c1.6-3,3.7-5.7,5.5-8.6c0.9-1.4,1.5-2.9,2.4-4.2c0.9-1.4,1.4-2.9,2.2-4.3c1-1.8,2.2-3.4,3.1-5.2s1.9-3.6,3-5.2
				c2.2-3.1,4.1-6.8,7-9.4c1.6-1.4,3.1-2.8,4.6-4.3c1.3-1.4,2.7-2.5,4.2-3.7c0.8-0.6,1.5-1.3,2.4-1.8c0.8-0.4,1.6-0.7,2.3-1.2
				c1.8-1.1,3-2.1,5.2-2.1C386.2,168.4,386.2,165.4,384.3,165.4L384.3,165.4z"/>
		</g>
	</g>
	<g>
		<g>
			<path d="M409.7,273.4c0.2,3-0.8,6-1.5,8.8c-0.8,3-1.7,5.9-2.8,8.7c-2.1,5.5-4.6,10.9-6.7,16.5c-2,5.5-3.7,11.1-5.6,16.6
				c-0.9,2.7-1.8,5.4-2.2,8.2c-0.4,2.8-1.2,5.4-2,8c-1.9,5.8-3.5,11.6-5.2,17.4c-1.8,5.9-3.9,11.6-5.8,17.5
				c-1.8,5.6-2.9,11.4-4.9,17c-1,2.8-2.3,5.5-3.2,8.4c-0.9,2.8-1.3,5.8-2,8.6c-0.7,2.9-1.6,5.7-2.3,8.6s-0.9,5.9-1.7,8.7
				c-0.4,1.3-0.8,2.6-1.1,4c-0.2,1.3-0.1,2.6-0.2,3.9c-0.1,1.3-0.7,2.6-1.1,3.9c-0.4,1.4-0.8,2.9-1.2,4.3c-1.5,5.9-3,11.7-4.7,17.5
				c-0.9,2.9-1.7,5.9-2.7,8.8c-0.9,2.8-2,5.5-2.7,8.3c-0.7,2.9-0.9,5.9-1.4,8.9c-0.6,3-1.4,6-2.1,8.9c-1.5,5.8-3,11.6-4.7,17.4
				c-1.7,5.5-2.9,11.3-5.2,16.6c-1.1,2.5-2.4,4.8-3.9,7c-1.1,1.7-2.1,3.5-3.3,5.2c-1.1,1.5-2.5,2.5-4.4,2.9
				c-1.1,0.2-2.3,0.1-3.5,0.2c-1.4,0.1-2.9,0.2-4.3,0.4c-2.7,0.3-5.4,0.5-8.1,0.3c-2.6-0.1-5.3-0.3-7.9,0c-1.2,0.2-2.4,0.5-3.6,0.7
				c-1.5,0.2-3.1,0.2-4.6,0.2c-3,0-6,0-8.9,0c-3.1,0-6.2,0-9.4,0c-2.1,0-4.8-0.1-6.7-1c-0.9-0.4-1.6-1-2.4-1.5c-1-0.6-2.1-0.8-3.3-1
				c-1.9-0.2-1.9,2.8,0,3c2.1,0.2,3.6,2.1,5.7,2.6c2.3,0.6,4.8,0.8,7.2,0.8c6.2,0,12.4,0.1,18.5,0c1.4,0,2.8-0.1,4.2-0.3
				c1.4-0.2,2.8-0.6,4.1-0.8c2.7-0.3,5.5,0,8.2,0.1c2.7,0.1,5.3-0.2,7.9-0.5c2.6-0.3,5.4,0,8-0.6c4-1,6.1-4.5,8.1-7.7
				c1.4-2.2,2.8-4.3,4-6.6c1.2-2.5,2.3-5.1,3.1-7.7c3.6-11.6,7-23.4,9.7-35.3c0.7-3,1.1-5.9,1.5-8.9c0.5-3.1,1.5-6,2.5-8.9
				c1.9-5.8,3.6-11.7,5.3-17.6c1.6-5.8,2.9-11.6,4.6-17.3c0.4-1.2,0.5-2.4,0.5-3.7c0-1.5,0.4-3,0.8-4.4c0.8-2.8,1.1-5.5,1.7-8.4
				c0.6-3.1,1.5-6,2.4-9.1c0.8-2.9,1.2-5.8,2-8.7c0.8-2.9,2.1-5.6,3.1-8.4c1.1-2.8,1.9-5.8,2.6-8.7c0.8-2.9,1.6-5.9,2.5-8.8
				c1-3,2.1-5.9,3.1-8.9c2-5.8,3.6-11.8,5.4-17.7c0.9-3,1.7-5.9,2.7-8.8c0.9-2.6,1.6-5.2,2-8c0.8-5.8,3.3-11.3,5-16.9
				c3.6-11.6,9.4-22.4,12.4-34.2c0.7-2.8,1.6-5.7,1.4-8.6C412.6,271.5,409.6,271.5,409.7,273.4L409.7,273.4z"/>
		</g>
	</g>
	<g>
		<g>
			<path d="M313.8,545.3c-1.1,4.4-1.6,8.8-2.2,13.3c-0.3,2.3-0.7,4.6-0.9,7c-0.1,1-0.1,2-0.4,3c-0.2,0.8-0.4,1.5-0.3,2.3
				c0.2,2,2.1,2.5,3.6,3.4c0.6,0.4,1.6,1,2,1.5c0.5,0.6,0.6,1.8,0.8,2.6c0.5,2.2,0.8,4.5,1,6.7c0.2,2-0.3,4.2-0.7,6.2
				c-0.4,1.9,2.5,2.7,2.9,0.8c0.4-2,0.8-4.1,0.9-6.1c0-1-0.2-2.2-0.4-3.2c-0.1-1.1-0.3-2.2-0.5-3.3c-0.3-1.7-0.6-3.9-1.6-5.4
				c-0.5-0.7-1.3-1.2-1.9-1.7c-0.8-0.6-1.7-1.1-2.6-1.6c-0.8-0.4-0.4-0.7-0.2-1.5c0.2-1,0.4-1.9,0.4-2.9c0.2-2.2,0.5-4.4,0.8-6.7
				c0.6-4.6,1.1-9.2,2.2-13.7C317.1,544.3,314.3,543.5,313.8,545.3L313.8,545.3z"/>
		</g>
	</g>
	<g>
		<g>
			<path d="M317.8,593.2c0,1,0.5,1.5,1,2.4c0.5,1,1,2,1.5,3c0.5,1,0.9,2,1.3,3c0.3,0.8,0.9,1.6,1.1,2.4c0.3,0.7,0.2,1.6,0.2,2.4
				c0,1,0.1,2,0.1,3c0,2.1,0.1,4.3-0.1,6.4c-0.1,1.7-0.6,4.1-2.4,4.8c-0.7,0.3-1.8-0.3-2.5-0.4c-0.9-0.2-1.8-0.4-2.6-1
				c-1.6-1.1-2.3-2.7-3.2-4.3c-0.5-0.8-1.1-1.5-1.6-2.3c-0.5-1-1-1.9-1.7-2.7c-1.2-1.5-3.3,0.6-2.1,2.1c0.5,0.7,0.9,1.5,1.3,2.3
				c0.4,0.8,1,1.4,1.5,2.2c0.8,1.5,1.6,2.9,2.8,4.2c1.2,1.2,2.7,2,4.4,2.4c1.6,0.4,3.4,1.2,5,0.4c3.3-1.6,4.2-5.3,4.2-8.7
				c0-2,0.1-4,0.1-6c0-1.6,0-3.4-0.3-5c-0.2-0.9-0.6-1.5-1-2.3c-0.5-1-0.8-2.1-1.2-3.1c-0.5-1-1-1.9-1.5-2.9
				c-0.2-0.5-0.5-1.1-0.8-1.6c-0.1-0.2-0.2-0.3-0.3-0.5c-0.1-0.2-0.2-0.5-0.2-0.2C320.8,591.2,317.8,591.2,317.8,593.2L317.8,593.2z
				"/>
		</g>
	</g>
	<g>
		<g>
			<path d="M307.3,610.9c-0.5,2.4,0.1,4.7-0.4,7.1c-0.2,1.2-0.7,1.8-1.4,2.8c-0.7,0.9-1.7,1.6-2.6,2.3c-1.1,0.7-1.6,0.2-2.6-0.5
				c-0.9-0.6-1.8-1.2-2.5-1.9c-0.6-0.6-1.2-2-1.4-2.8c-0.3-1.1-0.6-2.2-0.9-3.3c-0.2-0.9-0.2-1.7-0.9-2.4c-0.7-0.7-1.8-1.1-2.7-0.5
				c-0.8,0.5-1,1.4-1.1,2.3c-0.2,1.2-0.6,2.3-0.9,3.5c-0.5,2-0.6,4.6-2.1,6.1c-0.2,0.2-0.6,0.8-0.9,0.9c-0.1,0-0.9-0.2-1-0.2
				c-0.9-0.2-2.1-0.5-2.8-1.1c-0.7-0.6-0.7-2.2-0.9-3.1c-0.3-1.3-0.5-2.6-1-3.9c-0.5-1.2-1.2-2.4-1.7-3.6c-0.4-0.9-0.4-1.8-1.1-2.5
				c-1-1.1-2.5-0.1-2.6,1.1c-0.2,1.6-0.3,3.2-1.1,4.6c-0.8,1.5-1.5,3-2.5,4.3c-0.7,0.9-1.4,1.9-2.3,2.6c-1.2,1-2.1,0.5-3.5,0.2
				c-0.8-0.2-1.6-0.4-2.3-0.6c-0.5-0.2-1.4-0.3-1.8-0.7c-0.4-0.4-0.2-1.1-0.3-1.7c0-1-0.1-1.9-0.2-2.9c-0.1-1.7-0.1-3.5,0-5.2
				c0-0.9,0.1-1.9,0.1-2.8c0-0.8-0.2-1.8-0.2-2.6c0.2-1.9-2.8-1.9-3,0c-0.1,1.1,0.2,2.2,0.2,3.3c0,1.2-0.1,2.3-0.1,3.5
				c0,2.2,0.2,4.5,0.2,6.7c0.1,1.8,0.1,3.4,1.9,4.3c1.7,0.9,3.7,1.3,5.5,1.7c1.8,0.4,3.2,0.5,4.8-0.5c1.3-0.9,2.3-2.2,3.2-3.4
				c1.2-1.5,2-3.3,3-5c1-1.9,1.2-3.8,1.4-5.9c-0.9,0.3-1.7,0.7-2.6,1.1c0.2,0.2,0.3,1.2,0.4,1.5c0.3,0.8,0.7,1.5,1.1,2.2
				c0.8,1.7,1.1,3.4,1.6,5.2c0.4,1.4,0.4,3,1.5,4.1c1.1,1.1,2.6,1.6,4.1,2c1.4,0.4,2.9,0.6,4.1-0.4c1-0.9,2.1-2,2.6-3.4
				c0.6-1.5,0.8-3.2,1.2-4.8c0.2-0.8,0.4-1.7,0.6-2.5c0.1-0.4,0.2-0.8,0.3-1.2c0-0.2,0.1-0.3,0.1-0.5c0.1-0.4,0.1-0.4-0.1-0.1
				c-0.4,0-0.8,0.1-1.2,0.2c-0.1,0,0.4,1.7,0.4,1.8c0.2,0.7,0.4,1.3,0.5,2c0.3,1.4,0.9,2.8,1.7,4c0.7,1,1.9,2,2.9,2.7
				c1.3,0.8,2.5,1.9,4.2,1.8c1.5-0.1,2.6-1.1,3.7-2c1.2-1,2.1-2,3-3.2c0.9-1.2,1-2.9,1.2-4.3c0.2-1.7-0.2-3.5,0.1-5.2
				C310.6,609.8,307.7,609,307.3,610.9L307.3,610.9z"/>
		</g>
	</g>
	<g>
		<g>
			<path d="M259.7,604c-1-0.2-1.9-1.7-2.5-2.4c-0.6-0.8-1.6-1.7-1.7-2.8c-0.2-1.2,0.4-2.4,0.6-3.6c0.2-1.4,0.1-2.8,0.4-4.2
				c0.4-2.7,0.1-5.4,0.2-8.1c0.1-2.5,0.7-5.5,1.7-7.8c0.8-1.8-1.8-3.3-2.6-1.5c-1.2,2.7-1.9,5.9-2.1,8.9c-0.1,1.6,0,3.2,0,4.7
				c0,1.8-0.3,3.5-0.4,5.2c-0.1,0.8,0,1.6-0.1,2.4c-0.1,0.7-0.4,1.4-0.5,2.1c-0.2,1.4-0.2,2.8,0.5,4.1c0.6,1.2,1.6,2.3,2.5,3.4
				c0.8,1,2,2.2,3.3,2.5C260.8,607.2,261.6,604.3,259.7,604L259.7,604z"/>
		</g>
	</g>
	<g>
		<g>
			<path d="M256.8,575c1,0.1,1.6-0.7,2.3-1.2c0.7-0.6,1.4-1.1,2-1.8c0.6-0.6,1.3-1.1,1.9-1.7c0.7-0.7,1.3-1.5,2.1-2.1
				c0.7-0.5,1.4-1,2.2-1.4c0.8-0.4,1.7-0.6,2.6-0.8c0.5-0.1,0.9-0.3,1.4-0.5c0.5-0.2,0.9-0.5,1.3-0.8c0.3-0.2,0.6-0.4,0.9-0.6
				c0.4-0.3,0.9-0.4,1.3-0.6c1.7-0.8,0.2-3.4-1.5-2.6c-0.4,0.2-0.8,0.2-1.1,0.4c-0.4,0.2-0.7,0.5-1,0.7c-0.4,0.2-0.6,0.6-1,0.7
				c-0.4,0.2-0.9,0.3-1.2,0.4c-1.8,0.5-3.4,1.1-5,2.2c-0.7,0.5-1.4,1.1-2.1,1.7c-0.6,0.6-1.1,1.3-1.7,1.8c-0.7,0.6-1.3,1.3-2,1.9
				c-0.3,0.3-0.7,0.5-1,0.8c-0.1,0.1-0.3,0.2-0.4,0.3c-0.1,0.1-0.2,0.2-0.3,0.2c-0.2,0.2-0.1,0.1,0.3-0.1c-0.8-0.1-1.5,0.8-1.5,1.5
				C255.2,574.4,255.9,574.9,256.8,575L256.8,575z"/>
		</g>
	</g>
	<g>
		<g>
			<path d="M270.4,548.1c-1,4.9-1.6,9.8-2.2,14.7c-0.1,0.8,0.8,1.5,1.5,1.5c0.9,0,1.4-0.7,1.5-1.5c0.5-4.7,1.2-9.3,2.1-13.9
				c0.2-0.8-0.2-1.6-1-1.8C271.5,546.8,270.6,547.3,270.4,548.1L270.4,548.1z"/>
		</g>
	</g>
</g>
</svg>
